<?xml version="1.0" encoding="utf-8"?>
<!-- Generator: Adobe Illustrator 16.0.3, SVG Export Plug-In . SVG Version: 6.00 Build 0)  -->
<!DOCTYPE svg PUBLIC "-//W3C//DTD SVG 1.1//EN" "http://www.w3.org/Graphics/SVG/1.1/DTD/svg11.dtd">
<svg version="1.1" id="Слой_1" xmlns="http://www.w3.org/2000/svg" xmlns:xlink="http://www.w3.org/1999/xlink" x="0px" y="0px"
	 width="360px" height="270px" viewBox="40 0 360 270" enable-background="new 40 0 360 270" xml:space="preserve">
<path fill="#020202" d="M184.005,269.926c-0.108-0.074,1.421-0.891,5.317-2.846c9.924-4.973,10.112-5.076,27.308-14.559
	c27.817-15.347,34.837-19.338,49.319-28.023c14.287-8.566,22.928-14,32.921-20.701c26.42-17.719,32.778-22.161,41.951-29.322
	c11.909-9.295,22.928-18.221,22.928-18.574c0-0.053-0.12-0.365-0.274-0.695c-0.153-0.338-0.359-1.068-0.462-1.627
	c-0.286-1.579-1.317-5.439-1.677-6.277c-0.097-0.224-0.273-0.463-0.398-0.535c-0.213-0.125-0.219-0.162-0.063-0.47
	c0.263-0.524,0.467-0.649,0.707-0.433c0.109,0.103,0.296,0.16,0.422,0.131c1.244-0.273,1.974-0.49,2.938-0.871
	c0.621-0.246,1.533-0.577,2.035-0.73c0.495-0.16,1.529-0.537,2.293-0.84c0.759-0.308,1.442-0.553,1.518-0.553
	c0.404,0,0.685,0.657,1.568,3.73l0.239,0.844l0.313-0.348c0.177-0.194,0.344-0.422,0.371-0.509c0.046-0.131,0.107-0.125,0.383,0.03
	c0.422,0.221,0.724,1.059,1.231,3.386c0.205,0.964,0.433,2.009,0.501,2.316c0.132,0.616,0.942,5.606,1.415,8.741
	c0.165,1.074,0.348,2.675,0.41,3.56c0.063,0.89,0.189,2.453,0.286,3.479c0.097,1.025,0.184,2.035,0.199,2.24
	c0.022,0.204,0.098,0.422,0.188,0.479c0.126,0.073,0.139,0.17,0.052,0.416c-0.068,0.194-0.084,1.282-0.039,2.862
	c0.182,6.375,0.028,13.201-0.416,17.588c-1.005,10.149-2.624,21.043-4.198,28.217c-0.616,2.816-2.196,8.912-3.046,11.753
	c-1.055,3.53-3.028,8.981-5.328,14.719c-1.87,4.67-2.446,5.972-3.872,8.765c-3.205,6.273-5.931,11.268-6.508,11.907
	c-0.068,0.074-0.29,0.188-0.49,0.245l-0.359,0.102l0.171-0.334c0.098-0.184,0.457-0.806,0.805-1.383
	c1.124-1.846,4.249-7.709,6.399-12.009c1.335-2.662,4.563-10.67,6.349-15.723c0.587-1.681,1.111-3.153,1.151-3.279
	c0.046-0.125-0.495,0.338-1.203,1.033c-0.707,0.69-2.18,1.991-3.269,2.892s-2.726,2.321-3.633,3.159
	c-3.034,2.788-6.28,5.47-9.605,7.937c-1.089,0.806-3.074,2.295-4.408,3.298c-1.342,1.01-3.199,2.384-4.129,3.063
	c-2.944,2.127-12.914,8.696-15.503,10.207c-0.64,0.377-2.169,0.89-2.288,0.769c-0.027-0.026,0.799-0.528,1.809-1.139
	c4.181-2.537,12.433-7.955,15.526-10.197c2.098-1.516,6.638-4.898,10.116-7.532c2.909-2.201,5.829-4.648,8.265-6.912
	c0.595-0.554,2.259-1.99,3.697-3.192c2.931-2.459,5.013-4.529,5.219-5.207c0.12-0.394-0.029-0.279-1.592,1.271
	c-1.66,1.637-3.456,3.257-5.116,4.614c-0.435,0.354-1.267,1.026-1.843,1.5c-0.575,0.473-1.083,0.826-1.122,0.787
	c-0.041-0.039,0.152-0.264,0.433-0.49c0.273-0.234,0.935-0.834,1.466-1.329c0.53-0.502,1.653-1.495,2.487-2.207
	c0.838-0.707,2.469-2.235,3.627-3.394l2.099-2.099l0.297-1.071c2.002-7.238,2.828-10.893,4.313-19.117
	c0.416-2.314,1.122-7.35,1.044-7.431c-0.035-0.039-0.161,0-0.27,0.099c-0.649,0.559-4.791,3.895-6.388,5.154
	c-1.038,0.816-2.469,1.984-3.177,2.594c-0.707,0.611-2.858,2.357-4.779,3.886c-1.928,1.522-4.997,3.985-6.834,5.475
	c-6.547,5.319-12.604,9.95-15.953,12.197c-1.025,0.69-3.649,2.485-5.829,3.987c-4.465,3.078-12.991,8.787-15.388,10.291
	c-0.867,0.554-2.914,1.804-4.545,2.785c-1.631,0.985-3.566,2.16-4.3,2.621c-2.926,1.825-5.14,3.04-9.532,5.219
	c-4.306,2.134-11.088,5.27-11.401,5.27c-0.08,0-0.143-0.045-0.143-0.102c0-0.168,0.246-0.314,1.415-0.838
	c0.622-0.28,4.261-2.061,8.088-3.959c5.434-2.697,7.528-3.799,9.559-5.03c7.87-4.767,9.205-5.576,10.825-6.597
	c2.11-1.328,11.048-7.3,14.402-9.621c1.306-0.906,3.919-2.697,5.801-3.981c4.898-3.341,9.354-6.717,16.604-12.585
	c1.927-1.557,5.263-4.237,7.414-5.954c2.154-1.711,4.242-3.403,4.643-3.763c0.399-0.36,1.386-1.164,2.195-1.793
	c0.804-0.625,2.716-2.133,4.245-3.346c1.521-1.22,2.936-2.339,3.136-2.498c0.347-0.262,0.649-1.016,0.41-1.016
	c-0.058,0-0.866,0.702-1.809,1.559c-0.939,0.854-2.365,2.086-3.165,2.736c-0.805,0.65-2.326,1.928-3.387,2.834
	c-2.836,2.441-7.398,6.039-7.507,5.932c-0.028-0.029-0.028-0.068,0-0.086c0.029-0.029,0.685-0.593,1.46-1.277
	c0.781-0.68,1.979-1.694,2.663-2.254c0.685-0.559,2.134-1.778,3.229-2.713c1.089-0.936,2.612-2.207,3.384-2.83
	c0.774-0.621,2.024-1.692,2.776-2.377c0.753-0.686,1.637-1.473,1.962-1.752l0.594-0.508l0.439-3.791
	c0.245-2.082,0.524-4.552,0.628-5.485c0.33-3.085,0.5-7.638,0.5-13.437v-5.635l-0.547,0.434c-0.308,0.233-1.466,1.244-2.577,2.248
	c-1.113,0.998-2.579,2.27-3.264,2.822c-0.684,0.553-1.87,1.613-2.634,2.361c-0.76,0.74-1.403,1.328-1.433,1.3
	c-0.165-0.172,2.333-2.646,5.596-5.531c4.472-3.964,4.744-4.231,4.744-4.659c0-0.324-0.021-0.336-0.193-0.188
	c-0.108,0.092-0.506,0.416-0.877,0.724c-1.238,1.016-3.034,2.572-4.695,4.067c-3.234,2.907-5.624,5.022-7.198,6.346
	c-0.872,0.736-2.525,2.168-3.672,3.171c-1.146,1.004-2.772,2.379-3.611,3.051c-0.838,0.674-2.776,2.271-4.3,3.555
	c-2.971,2.486-5.025,4.138-7.746,6.214c-0.936,0.714-2.744,2.11-4.015,3.097c-5.521,4.289-16.882,12.564-24.834,18.096
	c-1.431,0.992-4.512,3.158-6.844,4.808c-2.333,1.647-5.339,3.706-6.674,4.573c-1.34,0.871-3.399,2.253-4.579,3.072
	c-1.187,0.822-2.943,1.99-3.907,2.606c-0.964,0.61-3.052,1.951-4.637,2.978c-3.235,2.094-8.231,5.15-15.781,9.666
	c-3.988,2.383-5.95,3.473-9.053,5.024c-2.173,1.095-4.665,2.39-5.527,2.88c-1.568,0.885-1.768,0.977-1.768,0.787
	c0-0.12,6.429-3.781,9.275-5.275c2.959-1.551,17.396-10.22,21.941-13.168c1.221-0.791,3.285-2.115,4.592-2.949
	c1.305-0.825,3.417-2.229,4.694-3.113c1.272-0.877,3.41-2.313,4.75-3.182c1.335-0.873,4.267-2.879,6.503-4.465
	c2.241-1.586,5.168-3.638,6.508-4.563c1.335-0.924,3.576-2.503,4.973-3.506c1.404-1.006,4.073-2.914,5.943-4.243
	c8.431-5.994,20.1-14.896,25.489-19.44c1.163-0.981,3.081-2.568,4.261-3.519c2.202-1.78,3.861-3.193,5.658-4.813
	c0.559-0.502,1.631-1.42,2.373-2.035c0.746-0.616,2.914-2.498,4.808-4.188c3.998-3.546,5.795-5.104,7.1-6.136
	c0.731-0.575,0.937-0.804,0.937-1.026v-0.285l-0.314,0.285c-0.17,0.161-0.615,0.52-0.986,0.799
	c-0.375,0.284-1.248,1.049-1.939,1.699c-0.695,0.65-1.658,1.512-2.149,1.905c-0.49,0.399-1.899,1.612-3.138,2.702
	c-1.231,1.095-2.453,2.162-2.714,2.379c-0.257,0.217-0.891,0.764-1.403,1.214c-0.52,0.457-1.335,1.112-1.813,1.466
	c-0.479,0.354-1.22,0.941-1.648,1.307c-0.815,0.694-1.203,0.844-0.451,0.17c2.109-1.881,4.724-4.203,5.26-4.664
	c0.358-0.308,1.46-1.276,2.44-2.149c0.98-0.874,2.383-2.082,3.113-2.692c0.736-0.604,1.837-1.58,2.453-2.16
	c0.611-0.578,1.517-1.358,2.008-1.735c0.491-0.37,0.958-0.757,1.044-0.861c0.131-0.159,0.126-0.581-0.034-2.759
	c-0.371-5.035-0.399-5.28-1.317-11.109c-0.748-4.716-1.718-9.277-1.984-9.277c-0.035,0-1.261,1.185-2.738,2.641
	c-6.725,6.614-8.784,8.398-19.427,16.828c-0.748,0.592-2.218,1.762-3.279,2.6c-10.329,8.194-14.14,11.063-21.617,16.299
	c-4.105,2.869-5.602,3.889-14.019,9.574c-1.244,0.838-3.177,2.146-4.296,2.903c-16.95,11.451-24.679,16.399-40.106,25.679
	c-14.026,8.434-18.652,11.098-36.368,20.947c-15.49,8.609-29.544,16.337-32.692,17.984c-3.622,1.889-10.272,5.213-12.389,6.193
	c-1.676,0.776-2.2,0.937-2.475,0.754L184.005,269.926z M369.798,150.611c2.513-2.404,3.251-3.176,3.2-3.331
	c-0.036-0.117-0.166-0.591-0.292-1.05c-0.36-1.311-0.894-3-1.002-3.174c-0.08-0.127-0.331-0.057-1.333,0.363
	c-0.675,0.29-1.791,0.71-2.478,0.936c-0.687,0.229-1.293,0.461-1.345,0.514c-0.063,0.057,0,0.617,0.143,1.318
	c0.298,1.443,0.264,1.84-0.085,1.08c-0.189-0.416-0.458-1.648-0.471-2.187c-0.006-0.08-1.114,0.335-1.282,0.479
	c-0.051,0.041,0.036,0.352,0.189,0.697c0.475,1.044,1.093,3.397,1.168,4.453c0.035,0.53,0.023,0.934-0.028,0.887
	c-0.12-0.115-0.429-0.979-1.019-2.848c-0.27-0.859-0.629-1.881-0.802-2.268l-0.313-0.709l-0.47,0.082
	c-0.607,0.097-0.652,0.137-0.515,0.396c0.131,0.248,0.475,1.419,1.018,3.484c0.39,1.481,0.91,4.227,0.91,4.809
	c0,0.196,0.034,0.393,0.075,0.432c0.08,0.088,0.027,0.151,4.725-4.365H369.798z M366.445,148.511c-0.074-0.288,0-0.312,0.098-0.03
	c0.047,0.129,0.055,0.237,0.02,0.237s-0.09-0.093-0.117-0.202V148.511z M369.672,147.755c-0.621-2.177-0.687-2.479-0.574-2.642
	c0.099-0.151,0.121-0.151,0.185,0c0.16,0.369,0.699,2.603,0.664,2.742c-0.06,0.229-0.195,0.18-0.274-0.106V147.755z
	 M367.406,145.615c-0.055-0.145,0.02-0.348,0.125-0.348c0.043,0,0.082,0.105,0.082,0.234c0,0.242-0.129,0.313-0.203,0.117
	L367.406,145.615z M74,265.891c0-0.242,0.763-0.832,2.339-1.813c0.872-0.541,1.789-1.132,2.042-1.307
	c0.247-0.18,0.86-0.528,1.364-0.789c1.519-0.771,5.355-2.973,7.104-4.064c0.906-0.568,2.133-1.318,2.724-1.673
	c1.289-0.767,5.486-3.507,6.828-4.453c1.182-0.84,3.892-2.647,11.943-7.951c9.826-6.47,14.316-9.471,16.941-11.319
	c1.348-0.951,3.853-2.572,5.572-3.613c1.72-1.042,3.716-2.299,4.438-2.793c0.716-0.496,2.276-1.475,3.468-2.18
	c3.131-1.865,5.155-3.136,8.812-5.545c1.783-1.179,3.411-2.209,3.624-2.293c0.373-0.152,0.395-0.146,0.671,0.168
	c0.148,0.18,0.544,0.807,0.871,1.392c0.642,1.138,1.066,1.835,3.021,4.995c0.694,1.125,1.371,2.353,1.503,2.729l0.235,0.694
	l-0.385,0.314c-0.211,0.176-1.399,0.979-2.637,1.785c-1.233,0.811-2.241,1.51-2.241,1.561c0,0.05,0.493,0.928,1.089,1.959
	c0.601,1.029,1.376,2.427,1.726,3.102c0.343,0.676,1.122,2.084,1.731,3.131c0.608,1.042,1.583,2.826,2.161,3.965
	c0.998,1.953,5.94,10.996,9.494,17.365c0.894,1.6,1.835,3.316,2.093,3.824l0.47,0.922h-0.379c-0.343,0-0.394-0.05-0.745-0.742
	c-0.206-0.412-0.843-1.431-1.415-2.265c-0.574-0.833-1.531-2.381-2.122-3.438c-0.59-1.055-1.089-1.904-1.107-1.888
	c-0.085,0.079-0.412,2-0.458,2.664c-0.04,0.636,0,0.849,0.247,1.38c0.325,0.709,0.325,0.715,0.195,0.715
	c-0.057,0-0.316-0.463-0.586-1.031c-0.268-0.569-0.831-1.537-1.249-2.15c-0.844-1.24-1.669-2.693-3.412-6.031
	c-1.983-3.796-3.967-7.343-5.142-9.213c-0.408-0.646-1.009-1.678-1.342-2.29c-0.516-0.953-2.689-4.696-3.297-5.677l-0.189-0.311
	l-1.301,1.02c-2.201,1.724-10.331,6.988-17.784,11.499c-1.25,0.76-3.325,2.065-4.604,2.905c-1.284,0.84-3.332,2.146-4.553,2.906
	c-1.215,0.76-3.416,2.161-4.89,3.125c-1.468,0.963-3.795,2.442-5.171,3.293s-3.578,2.23-4.89,3.069
	c-4.261,2.708-5.172,3.204-5.172,2.799c0-0.052,0.471-0.389,1.049-0.743c0.58-0.354,2.253-1.431,3.727-2.388
	c1.467-0.963,3.858-2.489,5.314-3.396c1.458-0.907,2.689-1.729,2.746-1.836c0.116-0.209,0.367-1.717,0.3-1.785
	c-0.03-0.022-0.276,0.13-0.551,0.332c-0.546,0.399-6.989,4.713-9.603,6.426c-0.86,0.563-2.099,1.391-2.752,1.835
	c-1.244,0.845-1.708,1.042-1.708,0.726c0-0.248,0.922-0.939,3.582-2.701c1.249-0.828,3.068-2.045,4.037-2.703
	c0.968-0.659,2.712-1.836,3.88-2.618c1.164-0.777,2.679-1.813,3.366-2.304c0.682-0.49,1.852-1.277,2.597-1.752
	c0.746-0.473,2.121-1.4,3.062-2.065c0.935-0.658,3.314-2.229,5.285-3.485c3.257-2.078,9.347-6.014,14.586-9.432
	c1.113-0.727,2.569-1.666,3.239-2.089c0.671-0.429,2.614-1.679,4.317-2.782c2.535-1.65,3.097-2.061,3.125-2.292
	c0.047-0.354,0.396-0.591,0.538-0.366c0.081,0.131,0.367,0,1.395-0.658c0.704-0.449,1.85-1.171,2.539-1.604
	c0.688-0.429,1.272-0.8,1.302-0.822c0.023-0.022-0.16-0.248-0.419-0.507c-0.528-0.535-1.56-2.083-2.706-4.049
	c-0.424-0.737-0.957-1.616-1.176-1.954c-0.515-0.782-1.261-2.433-1.266-2.776c0-0.254-0.024-0.248-0.482,0.17
	c-1.181,1.07-8.06,5.528-12.574,8.153c-0.767,0.444-2.046,1.263-2.837,1.808c-0.797,0.545-2.803,1.813-4.46,2.815
	c-1.657,0.996-4.324,2.729-5.918,3.846c-1.592,1.114-4.431,3.04-6.311,4.273c-1.876,1.233-4.288,2.844-5.361,3.575
	c-1.072,0.732-3.463,2.299-5.303,3.475c-1.846,1.182-3.417,2.219-3.492,2.305c-0.108,0.129-0.051,0.303,0.276,0.889
	c0.223,0.394,0.596,0.957,0.813,1.238c0.225,0.289,0.379,0.547,0.351,0.574c-0.035,0.034-0.27-0.105-0.528-0.309
	c-0.436-0.35-1.123-1.313-1.336-1.87c-0.085-0.231-0.16-0.192-1.399,0.67c-0.716,0.502-2.12,1.442-3.124,2.089
	c-0.999,0.641-2.196,1.447-2.66,1.779c-1.154,0.84-6.066,4.043-7.459,4.861c-0.625,0.369-1.83,1.107-2.672,1.643
	c-0.843,0.535-2.482,1.498-3.64,2.14c-1.158,0.648-2.437,1.413-2.844,1.7c-1.742,1.25-4.913,3.166-5.149,3.104
	c-0.045,0-0.337,0.101-0.647,0.252c-0.637,0.321-0.683,0.328-0.683,0.153V265.891z M163.895,259.113c0-0.492,0.03-1.26,0.071-1.703
	c0.058-0.549,0.04-0.842-0.041-0.893c-0.095-0.059-0.095-0.134,0-0.285c0.105-0.172,0.029-0.402-0.516-1.338
	c-1.655-2.918-5.455-9.91-6.299-11.599c-0.522-1.04-1.489-2.832-2.153-3.987l-1.202-2.094l-0.269,0.439
	c-0.147,0.236-0.305,0.652-0.347,0.916c-0.117,0.732-0.328,0.611-0.252-0.131c0.042-0.369,0.188-0.832,0.369-1.138l0.311-0.514
	l-0.462-0.894L152.647,235l-0.083,0.456c-0.129,0.709-0.416,1.806-0.539,2.024c-0.082,0.15,0.03,0.444,0.44,1.189
	c0.533,0.975,0.545,0.986,0.733,0.744c0.106-0.139,0.23-0.214,0.27-0.169c0.129,0.127,0.099,0.671-0.046,0.813
	c-0.148,0.146,0.052,0.521,1.453,2.781c1.913,3.074,7.29,13.208,8.199,15.441c0.54,1.332,0.716,1.719,0.775,1.719
	C163.879,260,163.901,259.604,163.895,259.113z M117.016,255.732c0.995-0.643,3.074-1.957,4.619-2.912
	c1.551-0.959,3.799-2.385,5.004-3.166c1.199-0.782,3.226-2.053,4.504-2.823c10.043-6.052,18.375-11.549,18.375-12.122
	c0-0.109,0.096-0.248,0.211-0.309c0.186-0.102,0.289,0,0.805,0.82c0.33,0.51,0.637,0.932,0.682,0.932
	c0.045,0,0.137-0.139,0.194-0.305c0.062-0.166,0.221-0.561,0.352-0.883l0.232-0.576l-0.289,0.072
	c-0.274,0.066-0.284,0.055-0.159-0.172c0.067-0.128,0.204-0.268,0.29-0.3c0.09-0.034,0.164-0.134,0.164-0.218
	c0-0.138-0.59-1.408-0.817-1.764c-0.08-0.115-1.773,0.943-8.85,5.537c-1.193,0.775-3.119,2.008-4.278,2.734
	c-1.164,0.732-3.68,2.347-5.599,3.59c-1.921,1.248-5.068,3.266-6.987,4.492c-3.323,2.113-6.215,4.078-6.391,4.338
	c-0.135,0.193-0.101,0.394,0.069,0.394c0.279,0,3.197-1.509,4.072-2.103c0.46-0.315,0.87-0.549,0.903-0.516
	c0.102,0.105-0.232,0.366-1.749,1.348c-2.294,1.486-3.731,2.098-3.907,1.658c-0.041-0.104,0.028-0.238,0.141-0.326
	c0.119-0.084,0.182-0.184,0.143-0.223c-0.041-0.039-0.33,0.096-0.643,0.293c-0.54,0.352-0.579,0.407-0.852,1.305
	c-0.295,0.966-0.55,1.431-0.698,1.287c-0.045-0.045,0-0.389,0.119-0.771c0.114-0.378,0.227-0.782,0.262-0.894
	c0.051-0.178-0.035-0.15-0.495,0.149c-0.92,0.605-1.033,0.75-1.119,1.359c-0.045,0.312-0.147,0.755-0.233,0.981
	c-0.113,0.316-0.119,0.4-0.027,0.338c0.078-0.043,0.948-0.604,1.942-1.248H117.016z M151.787,236.018
	c0.2-1.041,0.227-1.672,0.075-1.947c-0.098-0.168-0.141-0.084-0.465,0.81c-0.196,0.552-0.356,1.022-0.356,1.054
	c0,0.133,0.485,1.112,0.524,1.064C151.588,236.962,151.69,236.527,151.787,236.018z M88.422,265.527c0-0.125,0.035-0.25,0.078-0.277
	c0.047-0.027,0.078,0.066,0.078,0.227c0,0.152-0.035,0.277-0.078,0.277S88.422,265.652,88.422,265.527z M327.093,265.627
	c0.15-0.184,0.819-0.496,0.885-0.418c0.083,0.094-0.069,0.211-0.425,0.328c-0.206,0.066-0.394,0.156-0.415,0.195
	c-0.023,0.039-0.075,0.07-0.118,0.07C326.978,265.803,327.003,265.721,327.093,265.627z M334.013,264.932
	c0.05-0.166,1.153-1.023,5.445-4.229c1.554-1.163,3.799-2.921,4.979-3.91c1.188-0.988,2.252-1.793,2.364-1.793
	c0.288,0,0.254,0.33-0.051,0.459c-0.136,0.064-0.78,0.587-1.431,1.176c-2.024,1.835-6.305,5.086-9.362,7.109
	c-0.803,0.533-1.578,1.052-1.725,1.15c-0.193,0.131-0.256,0.137-0.227,0.037H334.013z M126.789,261.698
	c0.508-0.741,2.451-3.31,4.318-5.718c1.868-2.399,4.132-5.401,5.037-6.676c1.464-2.053,1.856-2.523,1.856-2.221
	c0,0.273-3.867,5.52-6.6,8.953c-1.745,2.193-3.635,4.645-4.2,5.453c-0.571,0.802-1.101,1.482-1.188,1.509
	C125.931,263.027,126.277,262.438,126.789,261.698z M83.023,263.883c0.036-0.064,0.503-0.372,1.042-0.681
	c0.538-0.308,1.817-1.162,2.848-1.901c1.024-0.732,2.42-1.715,3.102-2.184c0.674-0.471,1.615-1.151,2.083-1.51
	c0.46-0.366,0.87-0.637,0.898-0.605c0.167,0.182-7.422,5.809-8.819,6.555C83.361,263.986,82.888,264.122,83.023,263.883z
	 M331.314,261.596c0.612-0.546,2.97-2.375,5.308-4.119c3.181-2.383,5.133-3.861,6.208-4.691c3.26-2.536,3.612-2.785,3.886-2.785H347
	l-0.256,0.201c-0.136,0.113-0.649,0.523-1.132,0.908c-3.982,3.189-5.771,4.566-8.654,6.67c-0.871,0.635-2.037,1.488-2.595,1.899
	c-0.558,0.409-1.371,0.979-1.805,1.265c-0.438,0.285-0.922,0.636-1.08,0.789c-0.158,0.148-0.363,0.268-0.449,0.268
	c-0.092,0,0.04-0.189,0.285-0.409V261.596z M131.025,261.861c0.478-0.821,2.235-3.508,3.743-5.723
	c1.022-1.498,2.563-3.932,3.42-5.402c1.395-2.381,1.812-2.995,1.812-2.646c0,0.298-3.07,5.345-4.537,7.456
	c-0.919,1.332-2.247,3.324-2.953,4.432c-0.701,1.108-1.341,2.021-1.424,2.021C131.002,262,130.975,261.949,131.025,261.861z
	 M165.33,260.775c-0.067-0.289-0.063-1.515,0-1.67c0.062-0.133,0.324-0.14,0.383-0.021c0.023,0.048-0.016,0.359-0.075,0.691
	c-0.058,0.332-0.113,0.744-0.113,0.921c0,0.368-0.121,0.411-0.199,0.073L165.33,260.775z M152.833,260.948
	c-0.038-0.041-0.067-0.287-0.067-0.537c0-0.601-0.25-3.623-0.423-5.117c-0.078-0.649-0.207-2.247-0.294-3.545
	c-0.216-3.438-0.592-7.045-0.872-8.36c-0.225-1.078-0.235-1.389-0.033-1.389c0.101,0,0.505,1.531,0.654,2.479
	c0.179,1.115,0.477,4.123,0.583,5.852c0.116,1.865,0.438,6.959,0.578,9.099c0.081,1.292,0.043,1.734-0.131,1.52H152.833z
	 M156.392,259.72c-0.114-0.297-0.094-0.551,0.05-0.61c0.207-0.077,0.278,0.067,0.219,0.453
	C156.599,259.962,156.501,260.02,156.392,259.72z M357.029,259.838c0.057-0.171,0.594-1.26,1.198-2.427
	c0.61-1.16,1.368-2.735,1.694-3.498c0.6-1.394,1.072-2.194,1.078-1.822c0,0.341-1.551,3.858-2.43,5.478
	C357.696,259.189,356.83,260.463,357.029,259.838z M91,259.925c0-0.062,0.392-0.325,0.869-0.592
	c0.475-0.265,1.482-0.853,2.241-1.313c1.439-0.881,3.797-2.1,3.886-2.016c0.066,0.063-0.687,0.542-2.391,1.553
	c-0.664,0.383-1.814,1.065-2.573,1.512C91.693,259.863,91,260.152,91,259.925z M103,258.966c0-0.118,0.821-1.559,1.119-1.968
	c0.206-0.275,0.332-0.552,0.298-0.65c-0.08-0.217,0.362-0.455,0.545-0.297c0.087,0.075,0.028,0.277-0.223,0.672
	c-1.05,1.734-1.429,2.277-1.579,2.277c-0.085,0-0.16-0.023-0.16-0.039V258.966z M208,258.848c0-0.222,0.115-0.294,1.633-1.08
	c0.737-0.386,1.956-1.043,2.705-1.461c0.742-0.412,2.007-1.099,2.805-1.522c0.806-0.419,2.801-1.534,4.44-2.474
	c1.638-0.935,3.509-2.01,4.161-2.377c1.701-0.968,5.578-3.039,7.081-3.785c0.714-0.352,1.915-0.996,2.676-1.426
	c0.759-0.437,1.41-0.76,1.451-0.72c0.09,0.09,0.26-0.028-1.707,1.154c-1.74,1.041-5.227,2.993-7.705,4.307
	c-0.77,0.413-2.216,1.229-3.203,1.812c-0.991,0.588-2.329,1.358-2.981,1.715c-0.647,0.357-1.236,0.689-1.304,0.746
	c-0.063,0.053-1.202,0.674-2.528,1.377c-1.321,0.695-3.243,1.725-4.263,2.279c-2.104,1.149-3.011,1.607-3.158,1.607
	C208.046,259,208,258.932,208,258.848z M105.105,258.727c0.054-0.412,0.629-1.727,0.754-1.727c0.054,0,0.074,0.085,0.05,0.229
	c-0.058,0.34-0.566,1.535-0.718,1.697C105.066,259.053,105.062,259.035,105.105,258.727z M141.351,255.505
	c0.16-0.272,0.355-0.332,0.394-0.121c0.02,0.082-0.062,0.177-0.207,0.25c-0.328,0.173-0.351,0.152-0.187-0.133V255.505z
	 M300,255.943c0-0.133,2.773-1.981,4.249-2.834c0.875-0.512,2.608-1.613,3.851-2.452c1.243-0.847,2.399-1.573,2.574-1.62
	c0.578-0.163,0.355,0.236-0.41,0.729c-0.396,0.262-1.498,1.016-2.456,1.678c-0.95,0.668-2.929,1.875-4.393,2.684
	c-1.466,0.799-2.767,1.553-2.895,1.665C300.299,255.975,300,256.066,300,255.943z M96.26,254.574
	c0.023-0.067,0.102-0.117,0.176-0.117c0.07,0,0.172-0.043,0.222-0.094c0.055-0.055,0.094-0.063,0.094-0.016
	c0,0.12-0.265,0.336-0.41,0.336c-0.082,0-0.113-0.043-0.082-0.117V254.574z M267.363,252.525c0.02-0.055,0.098-0.116,0.172-0.129
	c0.086-0.02,0.125,0.017,0.102,0.074c-0.016,0.06-0.094,0.117-0.172,0.133C267.379,252.624,267.34,252.584,267.363,252.525z
	 M98.12,252.688c0-0.06,0.078-0.133,0.172-0.164c0.097-0.031,0.253-0.125,0.351-0.211c0.094-0.09,0.199-0.133,0.231-0.103
	c0.074,0.075-0.481,0.59-0.637,0.59C98.169,252.8,98.12,252.749,98.12,252.688z M351,250.943c0-0.133,1.156-1.494,1.549-1.827
	c0.224-0.187,0.451-0.14,0.451,0.079c0,0.061-0.281,0.326-0.621,0.6c-0.345,0.268-0.711,0.607-0.816,0.755
	C351.318,250.891,351,251.109,351,250.943z M103.441,249.773c-0.434-0.199-0.516-0.379-0.286-0.613
	c0.161-0.16,0.266-0.156,0.266,0.016c0,0.074,0.149,0.285,0.328,0.465c0.367,0.375,0.289,0.41-0.308,0.141V249.773z M105.37,247.58
	c-0.215-0.223-0.215-0.391,0-0.391c0.106,0,0.422,0.422,0.422,0.559C105.792,247.881,105.573,247.795,105.37,247.58z
	 M106.412,247.604c-0.05-0.273,0-0.434,0.121-0.434c0.098,0,0.098,0.598,0,0.656c-0.039,0.023-0.097-0.074-0.125-0.223H106.412z
	 M351.419,247.475c3.065-3.262,4.271-4.475,4.46-4.475c0.17,0,0.16,0.311-0.025,0.42c-0.073,0.051-0.791,0.76-1.595,1.576
	c-0.797,0.816-1.614,1.604-1.809,1.759c-0.199,0.15-0.588,0.501-0.862,0.771c-0.678,0.662-0.812,0.621-0.179-0.058L351.419,247.475z
	 M363.004,247.955c0.02-0.128,0.072-0.413,0.106-0.635c0.038-0.221,0.268-1.002,0.517-1.736c0.25-0.729,0.811-2.445,1.247-3.811
	c0.797-2.506,0.897-2.773,1.051-2.773c0.244,0-0.097,1.352-1.142,4.533C364.313,244.95,362.912,248.434,363.004,247.955z
	 M313,247.952c0-0.103,1.589-1.324,2.64-2.025c1.456-0.976,6.558-4.698,7.274-5.312c0.607-0.518,1.086-0.754,1.086-0.531
	c0,0.068-0.139,0.229-0.313,0.348c-0.173,0.113-0.571,0.442-0.889,0.729c-0.994,0.898-5.646,4.26-7.39,5.342
	c-0.603,0.368-1.357,0.859-1.688,1.089C313.149,247.989,313,248.066,313,247.952z M355.015,247.917
	c0.028-0.058,0.94-0.806,2.042-1.674c1.102-0.87,2.595-2.124,3.316-2.788c0.72-0.664,1.909-1.674,2.629-2.248
	c0.727-0.579,1.943-1.63,2.705-2.339c1.521-1.42,2.187-1.959,2.29-1.856c0.109,0.114-3.022,3.071-4.528,4.275
	c-0.784,0.63-1.868,1.549-2.403,2.049c-1.31,1.221-2.619,2.275-4.426,3.588C355.199,247.969,354.928,248.133,355.015,247.917z
	 M279.331,246.616c-0.059-0.103,0.101-0.31,0.246-0.31c0.133,0,0.137,0.168,0.019,0.297c-0.113,0.113-0.195,0.117-0.257,0.017
	L279.331,246.616z M108,245.906c0-0.155,1.341-1.1,3.061-2.15c0.806-0.498,1.839-1.129,2.296-1.413
	c0.966-0.595,3.813-2.565,5.213-3.61c0.908-0.67,1.43-0.897,1.43-0.611c0,0.064-0.09,0.201-0.208,0.303
	c-0.653,0.582-5.594,3.842-7.029,4.639c-0.931,0.515-2.93,1.769-3.867,2.427C108.118,246.031,108,246.09,108,245.906z M123,245.951
	c0-0.219,0.701-1.747,1.293-2.818c1.633-2.966,5.306-8.93,5.602-9.104c0.221-0.131,0.09,0.186-0.365,0.896
	c-0.256,0.404-0.916,1.545-1.463,2.534c-0.848,1.551-2.419,4.232-4.15,7.088c-0.257,0.428-0.518,0.923-0.586,1.115
	c-0.075,0.186-0.171,0.338-0.228,0.338C123.045,246,123,245.979,123,245.951z M49.12,245.583c0-0.233-0.081-0.72-0.191-1.086
	c-0.25-0.886-0.8-1.463-2.816-2.978c-1.848-1.384-2.327-1.881-2.659-2.738c-0.485-1.275-0.415-2.51,0.245-4.551
	c0.472-1.446,1.212-2.961,2.53-5.18c1.878-3.16,2.432-4.145,3.585-6.35c1.318-2.528,1.557-3.305,1.48-4.797
	c-0.058-1.2-0.373-1.95-1.188-2.836c-0.752-0.817-1.621-1.399-3.936-2.629c-2.438-1.305-3.82-2.213-4.829-3.19
	c-1.166-1.125-1.288-1.469-1.334-3.642c-0.07-3.178,0.309-4.705,2.006-8.03c1.09-2.134,1.824-3.397,2.944-5.037
	c0.427-0.624,1.125-1.698,1.557-2.384c0.887-1.401,1.988-2.829,2.74-3.533c0.752-0.702,1.966-1.623,2.141-1.623
	c0.333,0,0.128,0.348-0.507,0.869c-1.172,0.954-2.269,2.109-2.939,3.098c-3.72,5.504-5.317,8.215-6.402,10.872
	c-0.676,1.67-0.897,2.923-0.915,5.118c0,1.833,0,1.88,0.315,2.52c0.181,0.36,0.572,0.897,0.869,1.195
	c0.722,0.727,3.12,2.264,5.445,3.498c1.598,0.846,2.052,1.148,2.898,1.934c0.548,0.508,1.131,1.17,1.3,1.474
	c0.688,1.247,0.723,3.088,0.087,4.854c-0.367,1.017-2.687,5.406-3.895,7.356c-1.842,2.972-2.729,4.722-3.393,6.705
	c-0.321,0.954-0.379,1.31-0.385,2.264c-0.03,1.847,0.35,2.418,2.705,4.213c1.551,1.179,2,1.647,2.362,2.447
	c0.461,1.017,0.676,2.583,0.356,2.583C49.174,246,49.12,245.88,49.12,245.583z M282.086,245.814
	c0.296-0.359,2.395-1.869,3.705-2.666c1.989-1.211,4.175-2.715,7.414-5.109c0.773-0.575,1.49-1.039,1.601-1.039
	c0.279,0,0.251,0.27-0.045,0.409c-0.13,0.067-0.828,0.569-1.545,1.112c-2.29,1.74-5.584,4.002-7.934,5.441
	c-1.256,0.77-2.461,1.537-2.681,1.714C282.158,246.031,281.839,246.119,282.086,245.814z M127.012,243.84
	c0.106-0.672,1.311-3.322,3.458-7.604c0.391-0.78,0.849-1.788,1.019-2.244c0.171-0.462,0.366-0.889,0.43-0.963
	c0.191-0.213,0.02,0.798-0.259,1.51c-0.492,1.275-3.141,6.766-4.244,8.816C127.04,244.046,126.967,244.136,127.012,243.84z
	 M277.199,242.78c0.149-0.116,0.752-0.503,1.338-0.861c0.585-0.364,1.435-0.901,1.877-1.201c0.448-0.306,2.169-1.394,3.828-2.422
	c1.659-1.022,3.456-2.161,3.984-2.519c1.137-0.764,4.529-2.924,7.118-4.53c1.005-0.618,2.439-1.549,3.192-2.062
	c1.366-0.931,2.032-1.254,2.416-1.174c0.132,0.028-0.005,0.149-0.431,0.364c-0.344,0.179-1.314,0.804-2.157,1.381
	c-0.85,0.583-2.487,1.642-3.646,2.351c-1.16,0.718-3.18,1.994-4.5,2.85c-6.097,3.945-12.824,8.043-13.203,8.043
	c-0.052,0,0.035-0.1,0.184-0.214V242.78z M238.359,243.525c0.019-0.077,0.09-0.151,0.168-0.168c0.101-0.019,0.134,0.021,0.114,0.115
	c-0.015,0.077-0.09,0.155-0.168,0.168C238.372,243.663,238.339,243.624,238.359,243.525z M241,241.718
	c0-0.151,0.229-0.651,0.51-1.103c0.281-0.45,0.548-0.955,0.588-1.123c0.084-0.342,0.634-0.62,0.854-0.43
	c0.198,0.162-0.227,0.922-1.128,2.043c-0.399,0.492-0.752,0.895-0.777,0.895C241.013,242,241,241.875,241,241.718z M243.334,239.816
	c0.019-0.125,0.058-0.359,0.082-0.521c0.031-0.179,0.089-0.289,0.16-0.289c0.144,0,0.14,0.039-0.031,0.528
	C243.38,240.007,243.283,240.136,243.334,239.816z M327.298,238.938c-0.078-0.129,0.229-0.938,0.354-0.938
	c0.09,0,0.082,0.253-0.019,0.514c-0.06,0.156-0.06,0.223,0,0.244c0.062,0.02,0.058,0.059,0,0.137
	C327.531,239.016,327.359,239.036,327.298,238.938z M244.201,238.514c0.035-0.113,0.601-0.176,0.601-0.07
	c0,0.098-0.191,0.168-0.441,0.168C244.244,238.611,244.181,238.576,244.201,238.514z M132.004,237.716
	c0-0.229,0.046-0.362,0.148-0.429c0.082-0.053,0.254-0.323,0.387-0.604c0.254-0.558,0.457-0.824,0.457-0.609
	c0,0.142-0.817,1.841-0.922,1.922c-0.039,0.029-0.067-0.096-0.067-0.28H132.004z M328.194,237.923c0-0.127,0.365-0.765,0.496-0.864
	c0.102-0.08,0.119-0.08,0.119,0.016c0,0.205-0.393,0.926-0.508,0.926c-0.057,0-0.111-0.033-0.111-0.077H328.194z M246,237.868
	c0-0.146,0.843-0.693,2.576-1.677c3.257-1.857,5.383-3.109,8.704-5.129c2.194-1.336,5.233-3.07,7.566-4.311
	c0.693-0.367,1.657-0.932,2.148-1.246c0.491-0.314,0.924-0.542,0.966-0.501c0.04,0.04,0.052,0.088,0.028,0.11
	c-0.895,0.705-4.233,2.755-7.838,4.811c-0.819,0.465-2.367,1.381-3.436,2.026c-1.727,1.042-3.639,2.149-7.733,4.472
	c-0.66,0.379-1.536,0.885-1.947,1.137C246.254,238.031,246,238.107,246,237.868z M137.422,237.502
	c0.027-0.043,0.082-0.078,0.129-0.078c0.039,0,0.054,0.035,0.027,0.078c-0.023,0.043-0.082,0.074-0.125,0.074
	S137.394,237.545,137.422,237.502z M333.36,234.525c0.02-0.056,0.098-0.117,0.172-0.129c0.09-0.02,0.129,0.016,0.105,0.073
	c-0.02,0.06-0.098,0.118-0.172,0.134C333.376,234.623,333.341,234.584,333.36,234.525z M299.189,233.598
	c0-0.072,0.559-0.283,0.609-0.228c0.079,0.073-0.23,0.271-0.429,0.271C299.271,233.641,299.189,233.62,299.189,233.598z
	 M139.438,233.537c-0.027-0.249-0.027-0.545,0-0.653c0.031-0.137,0-0.213-0.117-0.261C139,232.498,139.188,232,139.559,232
	c0.164,0,0.227,0.064,0.262,0.296c0.09,0.535-0.11,1.704-0.285,1.704C139.508,234,139.461,233.792,139.438,233.537z M336,232.964
	c0-0.157,0.76-0.808,1.705-1.444c1.041-0.705,2.841-2.082,3.675-2.81c0.368-0.319,0.838-0.699,1.058-0.847
	c1.258-0.871,4.424-3.453,5.933-4.84c0.548-0.508,1.107-0.945,1.242-0.979c0.503-0.132,0.52,0.039,0.032,0.352
	c-0.272,0.17-0.899,0.707-1.387,1.179c-1.057,1.034-1.985,1.808-4.715,3.94c-1.129,0.881-2.426,1.904-2.884,2.28
	c-0.454,0.37-1.382,1.047-2.053,1.497c-1.746,1.176-2.075,1.398-2.355,1.609C336.117,232.998,336,233.033,336,232.964z M304,231.982
	c0-0.227,0.988-1.033,4.665-3.811c1.129-0.852,2.775-2.102,3.67-2.771c0.888-0.67,2.372-1.777,3.3-2.457
	c1.359-1.008,1.59-1.144,1.186-0.711c-0.282,0.289-0.979,0.869-1.563,1.289s-1.546,1.176-2.146,1.674
	c-0.597,0.5-1.424,1.147-1.839,1.445c-2.513,1.775-5.671,4.133-6.745,5.025C304.236,231.91,304,232.051,304,231.982z
	 M146.022,230.908c0.155-0.215,6.655-3.902,6.881-3.908c0.051,0,0.097,0.061,0.097,0.136c0,0.191-0.696,0.737-1.405,1.107
	c-0.315,0.165-1.264,0.678-2.106,1.136c-1.348,0.73-3.241,1.621-3.461,1.621c-0.037,0-0.037-0.043,0-0.092H146.022z
	 M137.341,229.595c-0.144-0.09,0.032-0.262,0.207-0.202c0.094,0.03,0.165,0.082,0.165,0.112
	C137.713,229.591,137.439,229.657,137.341,229.595z M303,226.975c0.025-0.223,2.874-2.277,4.608-3.313
	c0.754-0.451,1.97-1.275,2.707-1.825c1.815-1.366,3.661-2.619,5.151-3.505c0.685-0.407,2.048-1.293,3.039-1.975
	c1.669-1.143,2.613-1.611,2.482-1.224c-0.029,0.086-0.237,0.252-0.456,0.372c-0.227,0.12-0.701,0.43-1.059,0.688
	c-0.842,0.605-2.927,1.974-4.944,3.242c-0.872,0.556-2.498,1.659-3.609,2.459c-1.11,0.807-2.862,1.957-3.888,2.557
	c-1.573,0.933-2.469,1.506-3.817,2.466c-0.119,0.086-0.221,0.108-0.215,0.051V226.975z M369.399,226.535
	c0.019-0.055,0.077-0.117,0.137-0.137c0.058-0.02,0.085,0.02,0.065,0.066c-0.02,0.059-0.077,0.117-0.137,0.137
	C369.407,226.621,369.379,226.582,369.399,226.535z M144.373,225.579c-0.05-0.082,0.172-0.281,0.239-0.215
	c0.066,0.063-0.028,0.284-0.121,0.284C144.452,225.648,144.397,225.618,144.373,225.579z M153.651,225.527
	c-0.377-0.572-1.076-1.858-1.782-3.275c-0.291-0.586-0.842-1.676-1.229-2.42c-0.71-1.361-0.812-1.832-0.392-1.832
	c0.328,0,3.287,6.003,3.626,7.357c0.084,0.354,0.142,0.643,0.122,0.643C153.969,226,153.821,225.787,153.651,225.527z
	 M141.145,224.814c0.116-0.114,0.973-0.639,1.899-1.168c0.921-0.524,2.152-1.242,2.722-1.588c1.207-0.723,2.088-1.144,2.204-1.045
	c0.147,0.123-0.192,0.356-2.25,1.578c-2.139,1.262-3.031,1.742-4.028,2.168c-0.728,0.307-0.828,0.316-0.547,0.049V224.814z
	 M151.683,224.632c-0.141-0.208-0.487-0.662-0.771-1.015c-1.006-1.254-2.137-3.419-1.873-3.586c0.167-0.104,0.313,0.039,0.565,0.553
	c0.127,0.266,0.681,1.232,1.217,2.159c0.906,1.538,1.275,2.257,1.158,2.257C151.95,225,151.816,224.833,151.683,224.632z
	 M271.391,223.516c0-0.066,0.055-0.121,0.125-0.121c0.067,0,0.106,0.043,0.09,0.09C271.559,223.628,271.391,223.652,271.391,223.516
	z M80.935,222.905c-0.115-1.563,0-2.599,0.428-3.939c0.538-1.659,1.059-2.657,2.621-5.028c5.336-8.092,6.487-10.377,6.329-12.611
	c-0.071-1.032-0.555-2.526-1.075-3.336c-0.717-1.122-2.644-3.027-4.902-4.852c-2.292-1.847-2.846-2.418-3.317-3.404
	c-0.264-0.553-0.296-0.745-0.291-1.692c0.026-2.554,1.03-4.493,4.727-9.048c1.459-1.796,3.219-4.264,3.746-5.245
	c1.289-2.417,1.009-4.84-0.915-7.851c-1.74-2.726-3.417-4.766-5.44-6.607c-1.866-1.699-2.727-2.327-4.936-3.604
	c-1.01-0.582-1.859-1.123-1.893-1.203c-0.087-0.233,0.192-0.484,0.538-0.484c0.247,0,0.313,0.045,0.285,0.2
	c-0.027,0.153,0.33,0.409,1.542,1.104c1.875,1.084,1.996,1.163,3.049,1.985c2.676,2.091,5.314,5.039,7.386,8.255
	c1.18,1.824,1.751,3.454,1.751,4.994c0,0.804-0.302,2.195-0.621,2.852c-0.608,1.252-2.215,3.567-4.002,5.774
	c-1.596,1.962-3.505,4.642-3.861,5.428c-0.796,1.728-0.998,3.666-0.494,4.708c0.472,0.975,0.981,1.495,3.269,3.319
	c2.566,2.058,4.661,4.179,5.232,5.313c0.85,1.676,1.123,3.551,0.746,5.092c-0.192,0.793-1.113,2.81-1.979,4.344
	c-0.598,1.061-2.255,3.654-4.546,7.132c-1.25,1.894-1.728,2.794-2.287,4.293c-0.632,1.694-0.851,2.754-0.84,4.049
	c0,0.632-0.032,1.157-0.077,1.157C81.056,224,80.979,223.504,80.935,222.905z M266.019,222.796c-0.074-0.31,0.079-4.153,0.328-7.993
	c0.181-2.748,0.378-5.392,0.949-12.408c0.707-8.644,1.006-14.465,1.006-19.36v-2.915l0.3-0.559c0.165-0.309,0.346-0.561,0.396-0.561
	c0.051,0,0.096,1.256,0.096,2.793c0,2.589,0.029,3,0.39,5.523c0.209,1.504,0.537,4.028,0.724,5.617
	c0.187,1.588,0.564,4.805,0.842,7.142c0.769,6.552,1.164,10.169,1.35,12.522c0.097,1.184,0.244,2.737,0.335,3.457
	c0.084,0.715,0.186,1.657,0.226,2.096c0.073,0.785,0.073,0.795-0.267,1.045c-0.185,0.139-0.362,0.219-0.389,0.166
	c-0.023-0.045-0.107-0.821-0.181-1.725c-0.266-3.257-1.108-11.072-2.137-19.772c-0.368-3.12-0.724-6.175-0.796-6.798
	c-0.074-0.623-0.159-1.199-0.199-1.274c-0.039-0.08-0.141,1.067-0.215,2.548c-0.141,2.628-0.525,7.9-0.858,11.758
	c-0.3,3.422-0.832,10.334-1.064,13.825c-0.315,4.816-0.321,4.861-0.564,5.011C266.12,223.047,266.075,223.023,266.019,222.796z
	 M276.182,221.648c0.066-0.476,0.445-1.567,0.566-1.635c0.18-0.104,0.094,0.432-0.195,1.207
	C276.236,222.081,276.1,222.236,276.182,221.648z M372,219.885c0-0.095,0.073-0.718,0.169-1.38c0.095-0.662,0.297-2.346,0.442-3.743
	c0.151-1.395,0.37-3.281,0.486-4.187c0.118-0.912,0.274-2.202,0.354-2.87c0.073-0.668,0.179-1.324,0.229-1.462
	c0.158-0.423,0.32-0.274,0.32,0.294c0,1.29-0.834,7.652-1.221,9.332c-0.112,0.484-0.292,1.552-0.398,2.369
	c-0.1,0.818-0.229,1.563-0.285,1.658c-0.079,0.139-0.09,0.139-0.096,0V219.885z M278.374,218.72c-0.054-0.144,0.09-0.522,0.2-0.522
	c0.117,0,0.058,0.559-0.063,0.602C278.46,218.814,278.398,218.779,278.374,218.72z M321.42,220.559
	c-0.097-0.06-0.093-0.078,0.024-0.125c0.159-0.063,0.269,0.02,0.164,0.121c-0.043,0.047-0.117,0.047-0.188,0V220.559z
	 M279.362,217.5c0-0.043,0.07-0.078,0.16-0.078c0.086,0,0.136,0.035,0.109,0.078c-0.023,0.043-0.098,0.078-0.16,0.078
	C279.412,217.578,279.362,217.543,279.362,217.5z M282.005,216.893c0.029-0.05,0.273-0.183,0.551-0.289
	c0.278-0.104,0.694-0.293,0.927-0.418c0.232-0.121,0.454-0.199,0.494-0.172c0.04,0.028,0.028,0.079-0.035,0.118
	c-1.141,0.714-1.431,0.859-1.693,0.859C282.067,216.991,281.977,216.956,282.005,216.893z M115.972,215.805
	c1.035-2.578,1.126-3.154,1.057-6.504c-0.046-2.06-0.103-2.681-0.321-3.632c-0.225-0.996-0.259-1.449-0.265-3.59
	c0-2.63,0.103-3.562,0.679-5.687c0.575-2.129,1.178-3.279,3.959-7.552c0.88-1.346,2.053-3.297,2.616-4.338
	c0.558-1.036,1.373-2.503,1.799-3.258c1.742-3.044,2.207-5.881,1.368-8.327c-0.271-0.777-1.218-2.245-2.126-3.287
	c-1.219-1.392-2.391-2.279-6.363-4.822c-3.023-1.934-4.61-3.119-5.484-4.086c-1.321-1.468-2.557-3.637-2.804-4.932
	c-0.196-1.059-0.052-2.971,0.344-4.534c1.064-4.22,3.426-8.185,7.702-12.921c1.489-1.658,7.944-7.418,10.38-9.272
	c2.093-1.594,3.651-2.318,4.271-1.984c0.339,0.184,0.288,0.408-0.218,0.949c-0.489,0.524-0.764,0.507-0.368-0.028
	c0.31-0.427,0.31-0.461-0.028-0.461c-0.702,0-2.444,1.144-4.972,3.263c-6.777,5.679-10.209,9.208-12.829,13.184
	c-2.599,3.943-4.098,8.669-3.598,11.344c0.263,1.416,1.638,3.707,3.058,5.111c1.028,1.018,2.207,1.875,5.316,3.855
	c4.713,3.004,6.036,4.145,7.616,6.544c0.999,1.513,1.183,2.21,1.173,4.466c0,1.754-0.024,1.869-0.386,2.971
	c-0.391,1.184-0.989,2.49-1.649,3.584c-0.208,0.351-0.874,1.554-1.478,2.677c-0.603,1.121-1.706,2.969-2.448,4.108
	c-2.259,3.471-2.426,3.742-3.046,4.983c-0.668,1.33-1.173,2.896-1.483,4.621c-0.328,1.779-0.299,5.381,0.046,7.177
	c0.454,2.354,0.338,5.709-0.271,7.84c-0.35,1.207-0.999,2.732-1.167,2.732c-0.109,0-0.137-0.063-0.085-0.195H115.972z M325,215.943
	c0-0.065,0.466-0.465,1.04-0.904c0.567-0.434,1.647-1.253,2.394-1.829c2.002-1.533,11.141-8.265,12.683-9.339
	c1.033-0.723,1.314-0.871,1.647-0.871c0.359,0,0.301,0.203-0.119,0.411c-0.591,0.301-1.857,1.2-6.229,4.425
	c-2.269,1.678-4.82,3.534-5.669,4.126c-0.848,0.597-2.419,1.72-3.494,2.503C325.09,216.036,325,216.098,325,215.943z
	 M284.025,214.919c-0.049-0.077-0.027-0.176,0.071-0.226c1.608-0.943,5.412-3.328,6.061-3.801c0.471-0.35,1.392-0.968,2.042-1.382
	c0.651-0.413,1.398-0.905,1.663-1.097c0.266-0.194,1.056-0.707,1.761-1.139c1.662-1.021,2.512-1.6,2.941-2.008
	c0.347-0.336,0.514-0.358,0.401-0.05c-0.082,0.209-2.151,1.789-3.061,2.328c-0.385,0.226-1.23,0.772-1.88,1.21
	c-0.649,0.436-1.836,1.207-2.632,1.717c-0.796,0.506-1.884,1.201-2.415,1.538c-0.537,0.337-1.745,1.132-2.688,1.761
	c-1.819,1.203-2.134,1.362-2.27,1.147H284.025z M153.384,213.561c-0.066-0.271-0.219-0.518-0.396-0.636
	c-0.444-0.293-1.558-0.442-2.819-0.373c-1,0.058-1.212,0.106-2.047,0.491c-0.64,0.288-0.978,0.391-1.055,0.316
	c-0.218-0.199,0.089-0.461,1.043-0.898l0.929-0.422l1.758-0.032c2.452-0.049,2.925,0.128,3.179,1.218
	c0.09,0.369-0.083,0.775-0.332,0.775C153.556,214,153.443,213.807,153.384,213.561z M330.613,209.15
	c0.752-0.899,1.229-1.289,1.375-1.106c0.053,0.075-0.066,0.241-0.34,0.481c-0.231,0.207-0.522,0.471-0.643,0.591
	c-0.733,0.729-0.91,0.89-1,0.884C329.954,210,330.224,209.615,330.613,209.15z M148.009,207.798
	c-0.061-0.082,0.199-0.262,0.704-0.478c0.389-0.172,0.531-0.182,1.837-0.182c1.307,0,1.445,0.014,1.839,0.182
	c0.571,0.246,0.656,0.313,0.594,0.443c-0.071,0.151-0.195,0.135-0.731-0.087c-0.418-0.176-0.571-0.192-1.62-0.192
	c-0.96,0-1.278,0.033-1.867,0.185C148.37,207.773,148.033,207.829,148.009,207.798z M336,203.955c0-0.055,4.556-3.87,5.327-4.46
	c0.29-0.222,1.355-1.097,2.366-1.953c1.014-0.849,2.582-2.117,3.488-2.817c0.912-0.693,2.366-1.813,3.239-2.479
	c0.867-0.673,2.013-1.522,2.543-1.897c0.531-0.369,1.204-0.85,1.5-1.063c0.381-0.281,0.536-0.347,0.536-0.226
	c0,0.092-0.702,0.672-1.558,1.289c-0.854,0.617-1.983,1.473-2.514,1.901c-0.529,0.425-1.573,1.235-2.32,1.799
	c-0.748,0.562-2.22,1.741-3.268,2.618c-1.05,0.876-2.578,2.134-3.394,2.796s-1.848,1.505-2.292,1.875
	c-0.85,0.705-3.489,2.663-3.599,2.663C336.023,204,336,203.973,336,203.955z M301.347,204.578c0-0.094,0.226-0.27,0.281-0.215
	c0.078,0.078-0.039,0.285-0.164,0.285C301.398,204.648,301.347,204.617,301.347,204.578z M346.448,200.5
	c0.023-0.043,0.063-0.078,0.082-0.078c0.016,0,0.035,0.035,0.035,0.078s-0.039,0.078-0.087,0.078
	C346.436,200.578,346.421,200.543,346.448,200.5z M350,198.986c0-0.352,2.6-2.721,5.18-4.744c0.755-0.594,2.213-1.832,3.232-2.754
	c1.022-0.922,2.188-1.92,2.586-2.221c0.399-0.303,0.727-0.582,0.727-0.632c0-0.138,0.843-0.636,1.07-0.636
	c0.112,0,0.205,0.072,0.205,0.164c0,0.089-0.082,0.165-0.181,0.165c-0.2,0-1.714,1.269-4.284,3.593
	c-0.896,0.811-2.284,1.98-3.079,2.605c-1.979,1.541-3.237,2.589-4.443,3.69C350.457,198.729,350,199.075,350,198.986z
	 M375.358,197.788c-0.095-0.093-0.052-0.468,0.063-0.562c0.156-0.134,0.273-0.035,0.273,0.215
	C375.694,197.727,375.499,197.93,375.358,197.788z M273.911,195.777c-0.923-0.85-0.917-2.924,0.031-4.305
	c0.15-0.217,0.261-0.496,0.248-0.621c0-0.125-0.105-1.824-0.211-3.785c-0.452-8.592-1.015-14.224-2.459-24.424
	c-0.366-2.582-0.974-6.959-1.351-9.726c-0.725-5.284-1.295-8.653-1.841-10.899L268,140.673l0.731-0.673l0.31,1.232
	c0.701,2.752,1.128,5.306,2.106,12.478c0.384,2.765,0.962,6.938,1.296,9.271c1.45,10.222,2.137,17.449,2.41,25.328l0.081,2.435
	l0.384,0.166c0.49,0.216,0.663,0.803,0.682,2.223c0,1.202-0.236,2.04-0.738,2.536c-0.403,0.395-0.978,0.445-1.339,0.109H273.911z
	 M274.864,194.993c0.113-0.683,0.117-0.931,0.043-1.675c-0.114-1.084-0.203-1.36-0.426-1.313c-0.242,0.054-0.434,0.976-0.438,2.129
	c0,0.94,0.055,1.231,0.332,1.691C274.594,196.193,274.7,196.009,274.864,194.993z M314.124,195.588c0-0.73,0.504-1.813,0.715-1.547
	c0.066,0.082,0.047,0.215-0.074,0.523c-0.09,0.23-0.238,0.647-0.332,0.926c-0.098,0.279-0.204,0.51-0.242,0.51
	C314.151,196,314.124,195.813,314.124,195.588z M316.328,193.617c-0.055-0.086,0.19-0.321,0.281-0.266
	c0.039,0.022,0.07,0.09,0.07,0.147c0,0.118-0.29,0.215-0.348,0.118H316.328z M376.264,191.717c-0.014-0.888,0-2.488,0.025-3.568
	c0.026-1.08,0.053-4.51,0.057-7.616c0-3.105,0.033-5.847,0.061-6.093c0.051-0.498,0.215-0.594,0.288-0.181
	c0.022,0.146,0.048,2.976,0.048,6.286c0,4.965-0.027,6.547-0.156,9.042c-0.197,3.755-0.283,4.331-0.322,2.123V191.717z M318,191.877
	c0-0.123,1.162-1.005,2.34-1.77c3.608-2.353,7.147-4.978,9.039-6.709c0.292-0.266,0.566-0.443,0.612-0.389
	c0.28,0.309-6.133,5.434-9.489,7.578c-0.612,0.395-1.318,0.869-1.577,1.061c-0.46,0.345-0.925,0.461-0.925,0.234V191.877z
	 M363.128,188.627c0.063-0.6,0.469-2.493,0.551-2.581c0.117-0.12,0.199,0,0.203,0.296c0,0.387-0.394,2.227-0.526,2.463
	C363.175,189.12,363.085,189.048,363.128,188.627z M362.377,187.895c-0.055-0.129,0.02-0.809,0.09-0.877
	c0.102-0.093,0.191,0.192,0.172,0.549C362.619,187.952,362.475,188.129,362.377,187.895z M366.269,182.605
	c0-0.073,0.259-0.254,0.367-0.258c0.164,0,0.105,0.121-0.102,0.219C366.308,182.669,366.269,182.676,366.269,182.605z
	 M332.086,182.658c0.027-0.145,0.742-0.527,0.828-0.441c0.027,0.027-0.082,0.167-0.242,0.313c-0.313,0.289-0.629,0.359-0.586,0.133
	V182.658z M334.239,181.657c0-0.036,0.086-0.149,0.194-0.25c0.148-0.138,0.216-0.161,0.285-0.091
	c0.067,0.066,0.056,0.125-0.055,0.246C334.524,181.719,334.239,181.777,334.239,181.657z M336,179.917
	c0-0.054,0.151-0.239,0.333-0.408c0.18-0.164,0.563-0.571,0.856-0.913c0.528-0.611,0.811-0.754,0.811-0.421
	c0,0.245-0.222,0.489-1.118,1.218C336.09,180.034,336,180.087,336,179.917z M267.51,178.703c-0.162-0.17-0.556-0.689-0.875-1.155
	c-0.318-0.466-0.974-1.376-1.455-2.03c-0.486-0.648-0.957-1.291-1.049-1.422c-0.221-0.302-0.081-1.964,0.417-5.121
	c0.389-2.479,1.061-7.714,1.259-9.761c0.069-0.746,0.197-1.911,0.289-2.594c0.093-0.683,0.295-2.767,0.452-4.625
	c0.453-5.331,0.487-5.626,1.287-11.003c0.046-0.313,0-0.489-0.273-0.848c-0.684-0.927-1.205-1.955-1.117-2.224
	c0.046-0.144,0.411-0.769,0.816-1.388l0.73-1.137v-2.96h-1.321c-3.426-0.027-6.828-1.063-9.888-3.032
	c-3.159-2.03-5.065-4.22-6.08-7.002c-0.632-1.724-0.702-2.253-0.702-4.983c0-2.167,0.042-2.725,0.261-3.806
	c1.009-4.967,4.081-9.483,7.582-11.151c0.649-0.313,0.724-0.385,1.071-1.098c0.413-0.854,1.067-1.638,1.647-1.991
	c0.846-0.517,2.458-0.523,3.518-0.027l0.499,0.233l0.568-0.558c0.938-0.927,1.977-1.262,2.591-0.841
	c0.365,0.25,0.742,1.035,0.684,1.417c-0.042,0.284,0,0.323,0.249,0.335c1.883,0.079,3.726,0.608,5.802,1.661
	c5.03,2.554,8.119,6.485,9.279,11.821c0.278,1.296,0.336,4.101,0.11,5.348c-0.395,2.161-1.368,4.453-2.736,6.479
	c-0.921,1.36-2.672,3.169-3.935,4.061c-2.024,1.433-4.834,2.572-7.291,2.958l-1.252,0.2l0.063,1.501l0.07,1.502l0.527,0.819
	c0.985,1.519,1.455,2.354,1.397,2.504c-0.029,0.078-0.482,0.659-0.997,1.296l-0.945,1.148l0.128,1.321
	c0.469,4.704,0.84,9.124,1.055,12.601c0.11,1.838,0.399,4.988,0.51,5.586c0.092,0.478,0.278,2.992,0.405,5.416
	c0.064,1.269,0.168,2.74,0.232,3.271c0.064,0.529,0.133,1.29,0.157,1.695c0.028,0.397,0.08,1.144,0.128,1.649l0.086,0.916
	l-0.748,1.338c-1.147,2.069-1.982,3.436-2.266,3.725c-0.341,0.347-0.584,0.337-0.945-0.039L267.51,178.703z M270.825,130.736
	c2.624-0.544,4.822-1.563,6.802-3.155c2.515-2.022,4.731-5.795,5.26-8.952c0.127-0.739,0.156-3.882,0.041-4.603
	c-0.144-0.952-0.685-2.95-1.019-3.776c-1.617-3.962-4.61-6.958-9.024-9.025c-1.985-0.928-4.903-1.385-7.476-1.174l-0.996,0.086
	l-0.402,0.791c-0.461,0.91-1.071,2.514-1.071,2.806c0,0.234-0.293,0.67-0.391,0.573c-0.132-0.132,0.143-1.673,0.432-2.377
	c0.161-0.401,0.282-0.733,0.27-0.744c-0.133-0.099-2.711,0.211-3.315,0.4c-0.881,0.275-0.794,0.149-1.398,2.108
	c-0.23,0.749-0.466,1.409-0.519,1.472c-0.178,0.189-0.109-0.991,0.121-1.931c0.121-0.498,0.196-0.928,0.174-0.95
	c-0.075-0.075-1.117,0.572-1.854,1.151c-2.255,1.775-4.368,5.515-5.105,9.037c-0.419,2.033-0.477,5.149-0.12,6.998
	c0.782,4.067,3.786,7.503,8.604,9.828c2.6,1.26,4.511,1.683,7.665,1.701C269.201,131,269.702,130.965,270.825,130.736z
	 M260.013,123.938c-0.187-0.262,1.671-1.329,3.745-2.153c3.186-1.262,6.946-1.904,10.398-1.767c1.681,0.063,2.2,0.32,1.609,0.782
	c-0.199,0.156-0.248,0.161-0.465,0.038c-0.177-0.095-0.719-0.143-1.979-0.172c-2.805-0.058-4.901,0.195-7.279,0.881
	c-1.378,0.395-3.744,1.357-4.823,1.957C260.317,124.004,260.119,124.076,260.013,123.938z M262.211,117.875
	c-0.442-0.187-0.863-0.627-1.067-1.111c-0.348-0.83-0.018-1.056,0.474-0.316c0.37,0.575,0.88,0.891,1.417,0.891
	c0.514,0,0.89-0.186,1.428-0.705c0.718-0.706,0.714-0.118,0,0.631c-0.635,0.66-1.544,0.909-2.244,0.61H262.211z M268.105,116.963
	c-0.685-0.126-1.105-0.4-1.105-0.726c0-0.208,0.276-0.222,0.367-0.018c0.192,0.418,1.657,0.522,2.714,0.196
	c0.334-0.104,0.638-0.241,0.669-0.304c0.075-0.129,0.25-0.152,0.25-0.034c0,0.183-0.468,0.523-0.946,0.694
	C269.496,116.967,268.61,117.055,268.105,116.963z M262.414,115.891c-0.552-0.344-0.552-2.186,0-3.329
	c0.17-0.349,0.704-0.642,0.997-0.542c0.149,0.052,0.328,0.401,0.508,1.01c0.158,0.533,0.075,1.7-0.157,2.182
	c-0.324,0.679-0.888,0.962-1.34,0.679H262.414z M268.686,114.926c-0.667-0.324-0.932-2.457-0.411-3.339
	c0.309-0.53,1.056-0.768,1.334-0.43c0.386,0.478,0.527,2.395,0.236,3.115C269.596,114.878,269.134,115.141,268.686,114.926z
	 M260.013,109.934c-0.116-0.166,0.575-0.828,1.328-1.277c0.822-0.486,1.58-0.704,2.244-0.648c0.434,0.036,0.576,0.324,0.189,0.388
	c-0.131,0.019-0.502,0.08-0.817,0.131c-0.831,0.133-1.49,0.439-2.176,0.999C260.159,110.036,260.106,110.065,260.013,109.934z
	 M271.491,108.826c-0.155-0.101-0.341-0.262-0.42-0.351c-0.08-0.09-0.393-0.31-0.696-0.49c-0.487-0.291-0.664-0.332-1.458-0.332
	c-1,0-1.177-0.162-0.556-0.496c0.528-0.279,1.776-0.173,2.438,0.215c0.674,0.4,1.201,0.99,1.201,1.359
	C272,109.059,271.874,109.082,271.491,108.826z M261.968,100.294c0.836-0.312,1.645-0.596,1.789-0.637
	c0.39-0.1,0.318-0.225-0.269-0.45c-0.649-0.255-1.636-0.276-2.103-0.05c-0.408,0.205-0.827,0.697-1.14,1.344L260,101l0.222-0.069
	C260.341,100.895,261.126,100.605,261.968,100.294z M262.948,100.506c0.079-0.137,0.072-0.156-0.047-0.156
	c-0.076,0-0.31,0.047-0.519,0.097L262,100.545l0.357,0.047c0.198,0.023,0.393,0.051,0.433,0.058c0.039,0,0.111-0.058,0.161-0.144
	H262.948z M267.973,99.904c0.108-0.062-0.126-0.429-0.41-0.648c-0.405-0.309-0.803-0.309-1.526,0
	c-0.464,0.203-1.037,0.59-1.037,0.707C265,100.002,267.913,99.943,267.973,99.904z M342,175.93c0-0.051,0.216-0.224,0.481-0.392
	c0.261-0.168,0.942-0.712,1.508-1.211c0.569-0.499,1.65-1.384,2.41-1.966c1.723-1.334,3.208-2.549,4.339-3.564
	c0.791-0.707,1.262-0.963,1.262-0.689c0,0.168-1.977,2.012-3.352,3.121c-0.727,0.582-2.012,1.559-2.859,2.157
	c-0.841,0.601-2.006,1.435-2.576,1.855C342.21,175.986,342,176.104,342,175.93z M371,172.938c0-0.037,0.183-0.172,0.397-0.297
	c0.215-0.127,0.729-0.522,1.144-0.881c1.155-1.001,2.276-1.822,2.4-1.756c0.214,0.117-0.118,0.423-1.626,1.51
	C371.386,172.896,371,173.139,371,172.938z M375.353,168.777c-0.104-0.492-0.019-0.777,0.239-0.777c0.141,0,0.129,0.417-0.02,0.741
	c-0.063,0.14-0.129,0.259-0.145,0.259S375.381,168.896,375.353,168.777z M356,163.906c0-0.053,0.239-0.293,0.523-0.539
	c0.823-0.7,2.114-1.981,2.211-2.184c0.109-0.242,0.266-0.248,0.266,0c0,0.233-0.934,1.242-1.97,2.116
	c-0.8,0.679-1.03,0.815-1.03,0.617V163.906z M375.313,164.539c0-0.086,0.069-0.172,0.159-0.203c0.203-0.063,0.254-0.016,0.191,0.191
	c-0.066,0.207-0.351,0.219-0.351,0.02V164.539z M254.985,163.715c0-0.154-0.075-0.314-0.172-0.349
	c-0.183-0.074-5.638-6.22-7.82-8.816c-0.74-0.88-1.891-2.315-2.551-3.188c-2.538-3.344-3.661-4.694-5.339-6.438l-0.848-0.874
	l-0.39,0.337c-0.213,0.188-0.436,0.345-0.499,0.345c-0.206,0-0.102,0.645,0.911,5.555l1.021,4.929l-0.315,0.4
	c-0.442,0.555-1.181,0.903-1.909,0.903c-0.768,0-0.951-0.076-0.951-0.4c0-0.206-1.73-8.811-1.982-9.867
	c-0.057-0.218-0.12-0.23-1.455-0.184c-2.058,0.063-2.813-0.217-2.813-1.069c0-0.519,0.223-0.933,0.779-1.435
	c0.52-0.47,0.865-0.662,1.793-1.006c0.367-0.132,0.699-0.273,0.744-0.31c0.041-0.039-0.067-0.788-0.251-1.664
	c-0.183-0.867-0.82-3.956-1.415-6.859c-0.597-2.898-1.158-5.603-1.256-6.008c-0.091-0.407-0.246-1.145-0.343-1.642
	c-0.098-0.502-0.917-4.481-1.816-8.844c-2.876-13.949-4.63-22.444-7.667-37.195c-1.632-7.923-3.14-15.241-3.357-16.27
	c-0.213-1.029-0.934-4.528-1.599-7.769c-0.664-3.242-1.248-5.923-1.295-5.952c-0.045-0.034-0.114-0.366-0.142-0.738
	c-0.035-0.377-0.911-4.79-1.954-9.81c-1.037-5.02-2.614-12.635-3.489-16.922L207,14.782l0.201-0.429
	c0.263-0.571,0.487-0.805,0.99-1.063c0.51-0.257,0.849-0.269,1.307-0.04c0.309,0.154,0.372,0.274,0.538,1.023
	c0.12,0.531,0.294,0.96,0.453,1.131l0.259,0.287l1.466-0.869c3.289-1.961,9.745-5.043,14.925-7.129
	c3.185-1.281,10.273-3.431,13.098-3.968c2.864-0.543,3.896-0.641,7.328-0.704c3.604-0.069,4.818,0,7.757,0.492
	c3.026,0.498,9.02,2.121,12.886,3.494c2.172,0.765,6.813,2.71,10.927,4.567c7.723,3.494,13.189,5.575,18.948,7.215
	c4.887,1.401,9.276,2.001,14.61,2.001c4.062,0,6.926-0.384,10.29-1.361c2.596-0.759,5.94-2.195,6.497-2.795
	c0.366-0.394,0.631-0.285,1.507,0.618c2.36,2.436,4.566,7.278,5.758,12.605c0.836,3.722,1.221,6.792,1.988,15.762
	c0.751,8.764,1.622,14.72,2.756,18.883c0.591,2.184,1.965,5.905,2.635,7.141c0.895,1.664,2.539,4.213,3.307,5.128
	c0.498,0.594,1.061,1.257,1.238,1.47L349,78.635l-0.67,0.681c-0.59,0.6-2.177,1.801-2.384,1.801c-0.039,0-0.491,0.319-0.996,0.714
	c-5.088,3.944-12.755,7.209-19.847,8.455c-3.961,0.698-6.435,0.857-11.82,0.772c-6.823-0.109-10.439-0.44-19.435-1.79
	c-7.111-1.068-9.597-1.617-15.057-3.332c-7.202-2.264-15.029-4.265-19.378-4.957c-1.5-0.24-2.011-0.264-5.792-0.264
	c-4.434,0-5.128,0.057-8.01,0.681c-4.761,1.023-9.483,3.179-13.922,6.357c-2.24,1.602-3.054,2.258-4.326,3.504l-1.088,1.064
	l2.703,13.136c1.49,7.222,3.038,14.71,3.438,16.648c0.877,4.174,2.137,10.304,3.243,15.705c0.442,2.15,0.842,3.98,0.889,4.065
	c0.051,0.086,0.389,0.246,0.749,0.36c0.779,0.24,1.095,0.49,1.095,0.881c0,0.193,0.155,0.41,0.481,0.686
	c0.94,0.789,2.888,2.829,3.97,4.161c0.603,0.743,1.818,2.259,2.693,3.368c1.622,2.029,2.551,3.115,5.863,6.837
	c1.002,1.127,2.297,2.591,2.881,3.261c0.579,0.668,1.089,1.211,1.135,1.211c0.045,0,0.309-0.424,0.584-0.933
	c0.275-0.515,1.559-2.699,2.854-4.847c2.955-4.924,4.377-7.524,6.256-11.441c1.707-3.556,2.464-4.927,2.744-4.979
	c0.315-0.063,0.246,0.234-0.304,1.326c-0.28,0.549-1.116,2.297-1.861,3.888c-2.109,4.477-3.06,6.22-6.75,12.337
	c-1.031,1.715-2.177,3.682-2.538,4.367c-0.745,1.418-0.91,1.641-1.21,1.641C255.048,164,254.985,163.921,254.985,163.715z
	 M236.68,155.884c0.244-0.093,0.32-0.188,0.32-0.392c0-0.387-1.714-9.378-1.805-9.477c-0.077-0.084-0.977,0.197-1.181,0.364
	c-0.076,0.065,0.162,1.517,0.763,4.675c0.483,2.521,0.906,4.663,0.941,4.762C235.794,156.034,236.212,156.061,236.68,155.884z
	 M234.487,145.691c1.142-0.303,2.927-1.127,3.296-1.512c0.279-0.297,0.279-0.303,0.059-0.469c-0.458-0.333-1.535-0.643-2.469-0.699
	c-2.29-0.147-5.373,1.117-5.373,2.211c0,0.379,0.209,0.543,0.886,0.715C231.482,146.093,233.535,145.938,234.487,145.691z
	 M235,141.938c0-0.053-1.046-5.033-1.334-6.365c-0.165-0.748-0.667-3.123-1.122-5.272c-0.454-2.156-0.873-4.094-0.932-4.313
	c-0.059-0.216-0.242-1.056-0.408-1.869c-0.165-0.812-0.956-4.592-1.765-8.394c-0.814-3.803-2.266-10.67-3.24-15.257
	c-0.968-4.586-1.807-8.383-1.866-8.44c-0.124-0.126-0.956,0.223-1.233,0.521c-0.189,0.199-0.16,0.399,0.526,3.642
	c0.4,1.887,1.304,6.135,2.007,9.44c3.211,15.125,4.32,20.341,4.438,20.81c0.071,0.279,0.662,3.036,1.304,6.125
	c1.387,6.626,1.966,9.296,2.031,9.399C233.448,142.027,235,142,235,141.938z M229.598,88.51c5.902-4.418,11.296-6.861,17.358-7.844
	c3.086-0.503,8.531-0.596,11.543-0.189c4.034,0.543,11.975,2.522,19.833,4.938c5.804,1.784,8.159,2.323,14.112,3.227
	c9.416,1.436,13.542,1.837,20.341,1.957c3.817,0.069,6.171-0.023,8.782-0.36c7.337-0.945,14.113-3.336,19.941-7.032
	c1.423-0.904,4.16-2.906,4.988-3.65L347,79.103l-0.309-0.504c-0.172-0.274-0.983-1.51-1.806-2.741
	c-2.246-3.347-3.113-5.006-4.166-7.976c-1.771-5.006-2.69-10.631-3.736-22.806c-0.737-8.542-1.269-12.497-2.177-16.112
	c-1.137-4.549-2.646-7.948-4.668-10.546c-0.464-0.595-0.664-0.772-1.166-1.041c-0.073-0.034-0.405,0.131-0.736,0.377
	c-0.869,0.647-1.475,0.973-2.874,1.563c-2.555,1.069-5.965,1.945-9.119,2.345c-1.771,0.218-7.606,0.183-9.978-0.069
	c-3.862-0.406-7.067-1.075-11.102-2.323c-5.737-1.772-10.126-3.495-17.85-7.025c-7.509-3.427-12.131-5.122-18.359-6.729
	c-2.651-0.681-3.84-0.927-6.079-1.26c-1.532-0.229-2.171-0.262-5.314-0.256c-4.977,0-7.348,0.349-12.399,1.802
	c-5.673,1.636-9.908,3.239-16.009,6.054c-1.932,0.892-6.24,3.136-7.457,3.885c-0.441,0.27-1.012,0.584-1.274,0.699
	c-0.606,0.274-0.555,0.549,0.114,0.549c1.606,0,2.296,3.563,1.091,5.652c-0.291,0.504-0.275,0.699,0.051,0.699
	c0.366,0,0.771,0.343,1.211,1.029c1.178,1.843,1.337,4.332,0.401,6.374c-0.143,0.315-0.24,0.671-0.212,0.785
	c0.063,0.229,0.206,0.274,0.315,0.103c0.159-0.258,0.737-0.114,1.189,0.292c0.885,0.801,1.427,2.529,1.325,4.246
	c-0.063,1.138-0.44,2.7-0.812,3.369c-0.314,0.561-0.269,0.894,0.138,0.996c0.434,0.108,1.537,1.281,1.868,1.996
	c0.428,0.899,0.583,1.975,0.503,3.371c-0.063,1.014-0.126,1.288-0.474,2.038c-0.218,0.469-0.395,0.984-0.395,1.138
	c0,0.252,0.035,0.27,0.309,0.189c0.914-0.274,1.571,0,1.983,0.84c0.234,0.486,0.256,0.669,0.246,2.232
	c0,1.528-0.053,1.847-0.378,3.066c-0.194,0.75-0.389,1.471-0.422,1.603c-0.035,0.138,0,0.527,0.068,0.87l0.131,0.624l0.572-0.023
	c0.491-0.028,0.605,0.023,0.839,0.297c0.521,0.606,0.674,1.419,0.669,3.542c0,1.51-0.057,2.14-0.234,2.896
	c-0.211,0.916-0.217,1.006-0.046,1.871l0.177,0.91l0.525-0.04c0.446-0.029,0.572,0,0.915,0.309c0.788,0.697,1.285,2.345,1.405,4.652
	c0.081,1.642-0.096,3.267-0.48,4.326c-0.377,1.047-0.348,1.178,0.264,1.195c0.594,0.023,0.931,0.309,1.291,1.116
	c0.223,0.498,0.268,0.812,0.303,2.173c0.034,1.327,0,1.762-0.212,2.666c-0.405,1.786-0.411,1.66,0.035,1.746
	c1.131,0.211,1.577,2.059,0.93,3.873c-0.251,0.71-0.267,0.858-0.153,1.392l0.12,0.601l1.205-1.156c0.663-0.63,1.925-1.689,2.8-2.341
	V88.51z M223.868,91.482c0-0.172-0.09-0.165-0.582,0.046c-0.231,0.102-0.227,0.102,0.176,0.11
	C223.821,91.639,223.868,91.619,223.868,91.482z M223.784,90.647c0.089,0,0.188-0.045,0.212-0.088
	c0.025-0.043-0.078-0.768-0.236-1.605c-0.158-0.833-0.286-1.552-0.286-1.595c0-0.169-0.163-0.071-0.518,0.313
	c-0.202,0.219-0.39,0.372-0.419,0.339c-0.064-0.071,0.306-0.822,0.552-1.124c0.227-0.268,0.247-0.79,0.035-0.877
	c-0.168-0.071-0.957,0.23-1.104,0.428c-0.065,0.087,0.029,0.811,0.295,2.252c0.212,1.162,0.404,2.176,0.424,2.253
	c0.029,0.093,0.153,0.076,0.458-0.083C223.429,90.746,223.691,90.647,223.784,90.647z M224.755,88.828
	c0-0.872-0.328-2.064-0.504-1.787c-0.039,0.061,0.149,1.708,0.301,2.58c0.078,0.461,0.086,0.474,0.141,0.186
	c0.031-0.167,0.058-0.603,0.062-0.973V88.828z M222.603,85.697c0.219-0.102,0.397-0.246,0.397-0.313
	c0.004-0.145-0.82-5.866-0.888-6.172c-0.071-0.344-0.469-0.259-0.808,0.18L221,79.783l0.402,2.743
	c0.224,1.511,0.431,2.925,0.465,3.14c0.047,0.308,0.093,0.38,0.199,0.308C222.146,85.925,222.383,85.805,222.603,85.697z
	 M223.922,82.569c0.093-1.608-0.196-3.237-0.625-3.504c-0.102-0.059-0.207-0.084-0.235-0.048c-0.035,0.053,0.422,3.365,0.653,4.723
	l0.046,0.26l0.051-0.271C223.843,83.58,223.89,83.058,223.922,82.569z M221.678,78.531c0.261-0.032,0.358-0.083,0.31-0.155
	c-0.042-0.054-0.082-0.163-0.082-0.238c0-0.112-0.097-0.138-0.483-0.138c-0.454,0-1.423,0.163-1.423,0.242
	c0,0.022,0.069,0.199,0.144,0.397l0.152,0.36l0.502-0.209C221.065,78.676,221.465,78.56,221.678,78.531z M220.128,77.813
	c0.204-0.096,0.478-0.175,0.619-0.175c0.136,0,0.253-0.06,0.253-0.126s-0.385-2.359-0.856-5.09
	c-0.466-2.732-0.852-4.988-0.852-5.018c0-0.031-0.066-0.031-0.151,0.029c-0.102,0.05-0.148,0-0.148-0.187
	c0-0.139-0.035-0.247-0.081-0.247c-0.183,0-0.542,0.404-0.72,0.826L218,68.278l0.795,4.596c0.878,5.059,0.888,5.125,0.939,5.125
	c0.024,0,0.202-0.079,0.399-0.181L220.128,77.813z M222,74.199c0-1.569-0.028-2.722-0.128-3.22C221.51,69.075,220.945,68,220.303,68
	c-0.169,0-0.303,0.042-0.303,0.089c0,0.049,0.403,2.139,0.899,4.644c0.688,3.502,0.914,4.481,0.991,4.229
	C221.942,76.789,221.988,75.545,222,74.199z M218.711,66.742c0.156-0.154,0.25-0.331,0.254-0.502c0-0.337-0.032-0.331-0.52,0.094
	c-0.434,0.372-0.465,0.485-0.359,1.282l0.05,0.384l0.164-0.514C218.39,67.202,218.574,66.872,218.711,66.742z M218.297,65.655
	c0.36-0.19,0.679-0.364,0.702-0.381c0.034-0.027-1.304-6.617-1.432-7.046c-0.036-0.102-0.197-0.202-0.371-0.219
	c-0.371-0.044-1.043,0.079-1.189,0.213c-0.058,0.056,0.238,1.671,0.708,3.861c0.439,2.067,0.806,3.8,0.806,3.846
	c0,0.127,0.074,0.106,0.776-0.269V65.655z M219.94,63.755c0.102-2.235-0.304-4.014-0.851-3.724
	c-0.098,0.049-0.082,0.166,0.582,4.528C219.788,65.347,219.882,65.079,219.94,63.755z M216.865,57.836
	c0.117-0.09,0.429-0.203,0.696-0.246c0.379-0.06,0.473-0.119,0.429-0.273c-0.027-0.102-0.362-1.813-0.734-3.799
	c-0.374-1.984-0.703-3.629-0.725-3.654c-0.028-0.03-0.256,0.173-0.517,0.447l-0.479,0.501l0.05-0.37
	c0.027-0.203,0.222-0.56,0.429-0.793c0.205-0.238,0.36-0.507,0.345-0.607c-0.029-0.125-0.24,0.029-0.697,0.482L215,50.187
	l0.713,3.768c0.389,2.068,0.728,3.827,0.757,3.91C216.531,58.05,216.604,58.05,216.865,57.836z M218.92,52.959
	c0.212-1.66,0-2.944-0.617-3.542c-0.518-0.511-1.003-0.558-1.242-0.118c-0.14,0.255-0.066,0.753,0.505,3.442
	c0.372,1.73,0.678,3.186,0.691,3.238C218.29,56.23,218.781,53.995,218.92,52.959z M216,48.126c-0.023-0.148-0.282-0.109-0.676,0.098
	c-0.16,0.086-0.304,0.164-0.315,0.176c-0.019,0.019-0.004,0.144,0.021,0.293l0.049,0.269l0.467-0.359
	C215.811,48.404,216.007,48.193,216,48.126z M214.252,47.707c0.385-0.158,0.724-0.347,0.747-0.42
	c0.054-0.17-1.544-8.139-1.658-8.273c-0.114-0.134-1.031,0.707-1.26,1.151c-0.163,0.325-0.126,0.604,0.548,3.942
	c0.747,3.656,0.797,3.893,0.874,3.893C213.534,48,213.866,47.866,214.252,47.707z M216.766,46.602
	c0.084-0.214,0.182-0.967,0.22-1.671c0.071-1.397-0.129-2.518-0.607-3.412c-0.284-0.533-1.273-1.61-1.375-1.513
	c-0.091,0.086,1.42,6.987,1.531,6.994C216.579,47,216.682,46.823,216.766,46.602z M212.687,40.435
	c0.347-0.168,0.416-0.328,0.153-0.371c-0.076-0.015-0.285,0.059-0.463,0.157c-0.282,0.152-0.329,0.214-0.351,0.449L212,40.938
	l0.172-0.168C212.264,40.678,212.497,40.524,212.687,40.435z M211.995,39.7c0.308-0.164,0.666-0.296,0.787-0.296
	c0.12,0,0.218-0.054,0.218-0.12c0-0.157-1.421-7.07-1.494-7.263c-0.073-0.18-1.5,0.855-1.506,1.089c0,0.169,1.367,6.89,1.402,6.89
	C211.433,40,211.681,39.861,211.995,39.7z M215.769,37.825c0.456-1.976,0.229-3.838-0.617-5.078
	c-0.39-0.564-0.947-0.894-1.145-0.682c-0.115,0.124,1.277,6.935,1.409,6.935C215.464,39,215.619,38.472,215.769,37.825z
	 M211.318,31.801c0.11-0.086,0.317-0.211,0.46-0.274c0.181-0.086,0.246-0.156,0.214-0.238c-0.022-0.066-0.039-0.148-0.039-0.191
	c0-0.168-0.828,0.086-0.939,0.289c-0.042,0.078,0.019,0.57,0.069,0.57C211.1,31.957,211.207,31.887,211.318,31.801z M211.803,30.418
	c0.107,0,0.197-0.031,0.197-0.049c0-0.023-0.355-1.89-0.78-4.15c-0.426-2.26-0.779-4.133-0.779-4.164
	c0-0.029-0.129-0.054-0.293-0.054c-0.325,0-0.986,0.4-1.139,0.684c-0.056,0.121,0.141,1.437,0.562,3.63
	c0.359,1.892,0.7,3.722,0.768,4.061L210.451,31l0.578-0.292C211.348,30.552,211.697,30.418,211.803,30.418z M212.877,29.937
	c0.394-1.798-0.189-4.254-1.295-5.445c-0.285-0.3-0.535-0.522-0.577-0.488c-0.107,0.11,1.445,7.099,1.554,6.996
	C212.62,30.947,212.755,30.472,212.877,29.937z M209.496,21.606c0.152-0.069,0.347-0.155,0.433-0.184
	c0.132-0.05,0.099-0.309-0.262-2.212c-0.227-1.183-0.427-2.176-0.456-2.2c-0.072-0.076-0.541,0.279-0.888,0.663L208,18.027
	l0.356,1.837c0.461,2.406,0.404,2.226,0.651,2.032C209.121,21.811,209.34,21.677,209.496,21.606z M210.935,20.346
	c0.004-0.703-0.035-1.1-0.133-1.419c-0.16-0.515-0.52-1.001-0.687-0.917c-0.098,0.049-0.075,0.304,0.167,1.733
	c0.153,0.917,0.309,1.806,0.344,1.963L210.689,22l0.125-0.338c0.086-0.242,0.121-0.634,0.125-1.316H210.935z M208.683,17.435
	c0.33-0.207,0.421-0.418,0.184-0.418c-0.195,0-0.83,0.476-0.859,0.644c-0.019,0.075,0,0.192,0.017,0.258
	c0.037,0.102,0.073,0.086,0.193-0.082C208.298,17.728,208.509,17.544,208.683,17.435z M208.076,15.683
	c0.419-0.176,0.805-0.318,0.871-0.318c0.131,0,0-0.834-0.176-1.166c-0.217-0.392-1.594-0.157-1.757,0.3
	C206.942,14.706,207.17,16,207.282,16C207.314,16,207.662,15.857,208.076,15.683z M374.794,160.508
	c-0.059-0.48-0.289-2.998-0.416-4.553c-0.083-1.046-0.471-3.364-0.809-4.83c-0.479-2.114-0.622-2.877-0.554-3.004
	c0.128-0.232,0.314-0.122,0.48,0.27c0.245,0.582,0.999,4.006,1.126,5.092c0.308,2.722,0.47,6.351,0.323,7.082L374.853,161
	L374.794,160.508z M235.048,159.91c-0.576-0.229-1.351-0.822-1.696-1.311c-0.331-0.467-0.373-0.59-0.344-1.043
	c0.023-0.423,0.06-0.514,0.24-0.552c0.156-0.022,0.208,0.031,0.208,0.215c0,0.373,0.496,1.023,1.096,1.44
	c0.51,0.35,1.889,0.881,2.295,0.881c0.28,0,0.147,0.289-0.164,0.381c-0.384,0.104-1.352,0.104-1.635,0V159.91z M363,158.917
	c0-0.05,0.264-0.322,0.582-0.603c0.325-0.276,0.665-0.678,0.763-0.89c0.101-0.205,0.44-0.596,0.754-0.856
	c0.313-0.262,1.01-0.902,1.554-1.413c0.539-0.52,1.549-1.454,2.24-2.072c0.692-0.617,1.473-1.364,1.735-1.659
	c1.466-1.63,2.296-2.482,2.356-2.421c0.269,0.278-2.89,3.552-6.014,6.224c-2.125,1.82-2.355,2.037-2.329,2.203
	c0.046,0.264-0.069,0.407-0.763,0.976C363.105,159.027,363,159.089,363,158.917z M395.749,142.749
	c-0.07-0.142-0.466-0.849-0.882-1.569c-1.075-1.873-1.312-2.629-1.372-4.388c-0.077-2.304,0.406-3.692,2.288-6.616
	c0.646-1.008,1.251-2.043,1.338-2.305c0.4-1.177,0.291-2.651-0.279-3.687c-0.351-0.63-1.107-1.349-2.935-2.758
	c-2.256-1.742-2.996-2.817-2.979-4.325c0-0.984,0.231-1.576,1.125-3.044c0.998-1.627,1.306-2.003,3.756-4.585
	c3.184-3.346,3.463-3.853,3.474-6.362c0-1.433,0.006-1.484-0.34-2.201c-0.192-0.405-0.575-1.019-0.852-1.366
	c-0.646-0.825-2.708-2.747-5.43-5.075c-3.077-2.624-3.586-3.214-4.256-4.939c-0.84-2.144-0.357-4.756,1.3-7.05
	c1.479-2.042,3.313-3.845,5.206-5.12c0.877-0.591,3.407-2.002,3.784-2.11c0.148-0.047,0.374-0.131,0.495-0.194
	c0.146-0.074,0.316-0.074,0.515,0c0.548,0.216,0.307,0.501-0.51,0.615c-0.386,0.051-0.978,0.323-2.068,0.956
	c-2.02,1.161-2.25,1.319-3.511,2.367c-3.412,2.851-5.338,6.229-4.959,8.71c0.159,1.024,0.505,1.907,1.124,2.868
	c0.57,0.887,0.899,1.206,3.801,3.68c5.689,4.854,6.578,6.128,6.376,9.138c-0.083,1.206-0.271,1.929-0.731,2.833
	c-0.428,0.826-0.849,1.326-3.526,4.166c-1.47,1.558-2.156,2.377-2.703,3.242c-1.187,1.872-1.318,2.197-1.318,3.181
	c0,1.473,0.505,2.168,3.045,4.159c1.942,1.53,2.486,2.094,2.912,3.044c0.297,0.648,0.352,0.916,0.386,1.832
	c0.065,1.65-0.121,2.128-1.888,4.818c-1.684,2.567-2.244,4.564-1.893,6.789c0.191,1.257,0.972,3.755,1.421,4.568
	c0.229,0.427,0.423,0.819,0.423,0.877c0,0.192-0.21,0.096-0.336-0.155V142.749z M372.786,140.516c0-0.762-0.938-2.06-1.884-2.605
	c-0.662-0.385-1.508-0.446-3.022-0.227c-1.409,0.209-1.546,0.215-1.773,0.073c-0.32-0.202,0.045-0.325,1.639-0.569
	c2.54-0.389,3.379-0.215,4.399,0.907c0.572,0.628,0.716,1.005,0.829,2.15c0.046,0.53,0.034,0.755-0.057,0.755
	C372.837,141,372.786,140.802,372.786,140.516z M374.569,134.621c-0.157-0.206-0.531-0.486-0.838-0.627
	c-0.307-0.143-0.819-0.417-1.148-0.606c-1.137-0.659-1.796-0.817-3.522-0.833c-0.849,0-1.656,0.027-1.8,0.068
	c-0.376,0.127-0.336-0.168,0.058-0.41c0.455-0.284,3.348-0.284,4.236,0c0.942,0.3,1.889,0.938,2.609,1.77
	c0.913,1.039,0.896,1.017,0.78,1.017c-0.052,0-0.227-0.169-0.375-0.374V134.621z M230.857,110.529c0-0.276-0.095-0.854-0.194-1.286
	c-0.177-0.751-0.663-4.287-0.663-4.812c0-0.138,0.064-0.306,0.138-0.374c0.113-0.099,0.152-0.075,0.215,0.121
	c0.137,0.409,0.49,3.421,0.564,4.8c0.105,1.881,0.105,1.972,0.028,2.019C230.902,111.025,230.867,110.825,230.857,110.529z
	 M222.825,108.51c0-0.737-0.24-2.678-0.448-3.628c-0.281-1.296-1.626-9.573-1.987-12.221c-0.406-2.984-0.49-4.337-0.277-4.556
	c0.083-0.087,0.175-0.127,0.204-0.093c0.032,0.041,0.194,1.141,0.359,2.447c0.167,1.308,0.661,4.607,1.095,7.344
	c0.615,3.876,0.827,5.471,0.967,7.251c0.308,3.997,0.304,3.945,0.194,3.945c-0.061,0-0.107-0.202-0.107-0.485V108.51z
	 M302.431,92.935c-1.801-0.121-3.053-0.332-3.327-0.567c-0.22-0.183-0.068-0.386,0.24-0.332c2.033,0.364,4.058,0.508,7.818,0.559
	c1.525,0.019,2.806,0.062,2.834,0.094C310.165,92.86,304.233,93.056,302.431,92.935z M240,85.936c0-0.052,0.241-0.21,0.536-0.353
	c1.056-0.5,3.305-1.042,5.483-1.322c1.345-0.169,4.289-0.307,5.329-0.246c0.892,0.052,2.708,0.438,2.651,0.564
	c-0.04,0.095-0.115,0.09-0.713-0.031c-0.638-0.129-5.261-0.034-6.784,0.138c-1.701,0.199-3.771,0.599-4.904,0.953
	C240.483,85.987,240,86.078,240,85.936z M348,83.987c0-0.101,1.481-1.317,3.014-2.484c0.506-0.384,1.128-0.896,1.378-1.135
	c0.505-0.481,0.755-0.491,0.52-0.025c-0.26,0.517-2.211,2.093-3.504,2.829c-0.319,0.182-0.771,0.461-0.995,0.618
	c-0.227,0.163-0.412,0.25-0.412,0.193V83.987z M345,82.921c0-0.057,0.641-0.569,1.42-1.148c2.217-1.642,3.018-2.54,3.018-3.369
	C349.442,78.047,349.473,78,349.7,78c0.199,0,0.268,0.063,0.295,0.295c0.116,1.081-1.748,3.085-3.917,4.217
	C345.067,83.046,345,83.07,345,82.921z M334.827,21.803c0-0.251-1.152-2.75-1.658-3.6c-0.212-0.358-0.786-1.165-1.278-1.798
	C331.4,15.775,331,15.201,331,15.129c0-0.292,0.342-0.089,1.022,0.604c1.483,1.524,2.737,3.946,2.949,5.705
	c0.048,0.382,0.033,0.562-0.039,0.562C334.875,22,334.827,21.91,334.827,21.803z M336.922,16.921c0-0.198-0.104-0.451-0.205-0.568
	c-0.099-0.117-0.348-0.584-0.548-1.04c-0.206-0.457-0.574-1.121-0.817-1.477c-0.404-0.604-0.453-0.836-0.18-0.836
	c0.23,0,0.729,0.517,1.077,1.126c0.637,1.091,0.793,1.603,0.742,2.409C336.961,16.941,336.942,17.114,336.922,16.921z M201,17.813
	c0-0.708,0.438-3.403,0.678-4.178c0.626-2.06,1.518-3.634,2.05-3.634c0.323,0,0.375,0.354,0.068,0.452
	c-0.424,0.128-1.231,2.016-2.014,4.672c-0.208,0.714-0.422,1.612-0.474,1.986C201.214,17.8,201,18.283,201,17.813z M204.116,15.786
	c-0.025-0.139-0.073-0.591-0.102-1.001c-0.078-1.141,0.162-1.893,0.945-2.957c0.458-0.619,0.671-0.828,0.842-0.828
	c0.321,0,0.253,0.231-0.2,0.701c-0.741,0.763-1.169,1.938-1.259,3.46C204.295,15.976,204.206,16.225,204.116,15.786z
	 M213.029,11.882c-0.091-0.174,0.039-0.297,0.311-0.297c0.13,0,0.544-0.149,0.924-0.327c0.958-0.455,1.933-0.812,2.619-0.965
	c0.318-0.072,0.691-0.174,0.822-0.225c0.136-0.054,0.267-0.081,0.294-0.063c0.024,0.021-0.673,0.344-1.558,0.718
	c-0.878,0.378-1.882,0.82-2.216,0.981C213.579,12.023,213.131,12.087,213.029,11.882z M257.408,1.768
	c-0.518-0.273-2.386-0.817-3.837-1.112c-0.536-0.111-1.285-0.149-3.111-0.171c-1.32-0.021-2.426-0.042-2.455-0.064
	c-0.031-0.021,0.094-0.106,0.272-0.192c0.429-0.206,2.112-0.282,3.968-0.188c1.041,0.051,1.665,0.132,2.492,0.334
	c1.093,0.26,1.415,0.41,2.955,1.364C258.228,2.071,258.02,2.093,257.408,1.768z"/>
<path fill="#2F2B2C" d="M242.71,42c-0.349-2.431-1.538-4.664-3.36-6.31c-1.625-1.373-3.777-1.948-5.87-1.57
	c-2.349,0.352-4.391,1.799-5.5,3.9c-1.143,2.24-1.31,4.853-0.46,7.22c0.565,2.174,1.879,4.079,3.71,5.38
	c1.68,1.115,3.727,1.535,5.71,1.17c2.61-0.38,4.38-1.31,5.28-3.09C243.138,46.587,243.311,44.224,242.71,42z M239.76,42.15
	c0.39,1.545,0.425,3.16,0.1,4.72c-0.34,1.44-1.4,2.21-3.21,2.46c-1.428,0.297-2.912-0.1-4-1.07c-1.152-1.086-1.979-2.471-2.39-4
	c-0.509-1.597-0.509-3.313,0-4.91c0.491-1.506,1.824-2.581,3.4-2.74c1.745-0.389,3.551,0.324,4.56,1.8
	C238.978,39.541,239.502,40.813,239.76,42.15z"/>
<path fill="#2F2B2C" d="M260.46,43.9c-0.143-2.479-1.067-4.849-2.64-6.77c-1.401-1.694-3.39-2.798-5.57-3.09
	c-2.173-0.422-4.407,0.339-5.87,2c-1.35,1.62-1.74,3.86-1.2,6.69c0.416,2.405,1.501,4.643,3.13,6.46c1.399,1.646,3.359,2.715,5.5,3
	c2.6,0.34,4.46-0.28,5.52-1.87C260.39,48.73,260.74,46.6,260.46,43.9z M257.59,43.5c0.226,1.555,0.082,3.141-0.42,4.63v-0.02
	c-0.49,1.3-1.58,1.87-3.4,1.61c-1.529-0.169-2.912-0.984-3.8-2.24c-0.993-1.363-1.648-2.944-1.91-4.61
	c-0.35-1.582-0.178-3.234,0.49-4.71c0.68-1.27,1.92-1.83,3.68-1.61c1.835,0.181,3.446,1.296,4.26,2.95
	C257.107,40.751,257.48,42.109,257.59,43.5z"/>
<path fill="#2F2B2C" d="M277.71,47.82c-0.15-2.407-1.06-4.704-2.6-6.56c-1.381-1.692-3.254-2.912-5.36-3.49
	c-2.33-0.66-4.19-0.33-5.48,1s-1.81,3.43-1.51,6.22c0.203,2.386,1.116,4.657,2.62,6.52c1.382,1.696,3.313,2.856,5.46,3.28
	c2.61,0.56,4.51,0.19,5.61-1.16C277.55,52.28,277.95,50.35,277.71,47.82z M274.85,47.2c0.191,1.425,0.008,2.876-0.53,4.21
	c-0.52,1.12-1.67,1.5-3.41,1.14c-1.525-0.283-2.87-1.17-3.73-2.46c-0.903-1.368-1.456-2.938-1.61-4.57
	c-0.25-1.5-0.004-3.042,0.7-4.39c0.66-1.09,1.83-1.43,3.49-1c1.777,0.437,3.273,1.632,4.09,3.27
	C274.419,44.593,274.758,45.882,274.85,47.2z"/>
<path fill="#2F2B2C" d="M295.07,51.48c-0.089-2.251-0.967-4.4-2.48-6.07c-1.415-1.533-3.264-2.597-5.3-3.05
	c-2.34-0.5-4.22-0.2-5.56,1c-1.34,1.2-1.9,3.12-1.65,5.74c0.181,2.309,1.056,4.508,2.51,6.31c1.348,1.715,3.269,2.886,5.41,3.3
	c2.67,0.51,4.54-0.02,5.67-1.44C294.865,55.592,295.366,53.519,295.07,51.48z M292.23,51.16c0.148,1.399-0.072,2.813-0.64,4.1v-0.02
	c-0.58,1.17-1.75,1.62-3.52,1.31c-1.511-0.256-2.85-1.125-3.7-2.4c-0.861-1.307-1.377-2.81-1.5-4.37
	c-0.211-1.429,0.075-2.887,0.81-4.13c0.69-1.05,1.89-1.36,3.55-1c1.705,0.321,3.175,1.394,4,2.92
	C291.812,48.683,292.153,49.906,292.23,51.16z"/>
<path fill="#2F2B2C" d="M300.44,44.7c-1.08-0.03-1.62-0.05-2.69-0.13c0.112,4.165,0.389,7.228,0.664,10.27
	c0.288,3.189,0.574,6.354,0.666,10.741h2.75c-0.08-3.12-0.19-4.68-0.43-7.68c0.505,0.559,1.096,1.035,1.75,1.41
	c0.986,0.494,2.093,0.696,3.19,0.58c1.521-0.103,2.961-0.716,4.09-1.74c1.811-1.62,2.61-4.06,2.41-7.24
	c0.021-1.984-0.817-3.88-2.3-5.2c-2.4-1.799-5.629-2.029-8.26-0.59c-0.682,0.409-1.28,0.945-1.76,1.58
	C300.44,45.91,300.44,45.51,300.44,44.7z M309.96,51.54c0.218,1.565-0.137,3.156-1,4.48c-0.736,1.017-1.896,1.643-3.15,1.7
	c-1.697,0.24-3.358-0.629-4.13-2.16c-0.48-0.906-0.756-1.906-0.81-2.93c-0.137-1.186-0.028-2.388,0.32-3.53
	c0.521-1.665,2.098-2.77,3.84-2.69c1.708-0.225,3.374,0.648,4.161,2.18C309.654,49.507,309.916,50.513,309.96,51.54z"/>
<path fill="#2F2B2C" d="M317.93,53.03c0.055,0.651,0.347,1.26,0.82,1.71c0.75,0.62,2,0.72,3.76,0.24
	c0.995-0.255,1.923-0.723,2.721-1.37c0.701-0.487,1.111-1.295,1.09-2.15c0.003-0.572-0.431-1.053-1-1.11
	c-0.809-0.076-1.622-0.076-2.431,0c-0.92,0.06-1.37,0.06-2.3,0.06c-1.09,0.082-2.185-0.023-3.24-0.31
	c-1.136-0.243-1.961-1.229-2-2.39c-0.063-1.403,0.52-2.759,1.58-3.68c1.322-1.159,2.933-1.939,4.66-2.26
	c2.53-0.61,4.33-0.48,5.48,0.45c0.689,0.555,1.1,1.386,1.12,2.271c-1,0.33-1.54,0.479-2.57,0.78c-0.074-0.505-0.339-0.963-0.74-1.28
	c-0.68-0.45-1.82-0.46-3.43-0.07c-0.888,0.166-1.725,0.539-2.44,1.09c-0.494,0.37-0.779,0.954-0.77,1.57
	c0.041,0.646,0.528,1.177,1.17,1.27c0.622,0.146,1.263,0.197,1.899,0.15l1.891-0.09c1.362-0.167,2.737-0.167,4.1,0
	c1.078,0.261,1.811,1.263,1.73,2.37c0.002,1.417-0.534,2.783-1.5,3.82c-1.33,1.462-3.074,2.484-5,2.93
	c-2.471,0.68-4.25,0.58-5.34-0.18c-1.091-0.768-1.783-1.981-1.891-3.31C316.32,53.41,316.86,53.27,317.93,53.03z"/>
</svg>
